<?xml version="1.0" encoding="UTF-8"?>
<svg version="1.1" xmlns="http://www.w3.org/2000/svg" width="1024" height="1024">
<path d="M0 0 C337.92 0 675.84 0 1024 0 C1024 337.92 1024 675.84 1024 1024 C686.08 1024 348.16 1024 0 1024 C0 686.08 0 348.16 0 0 Z " fill="#FEFEFE" transform="translate(0,0)"/>
<path d="M0 0 C1.05058594 -0.01224609 2.10117187 -0.02449219 3.18359375 -0.03710938 C9.19578003 -0.04839633 14.36830293 0.43274776 20.125 2.1875 C19.99222656 2.82816406 19.85945313 3.46882812 19.72265625 4.12890625 C16.81868326 18.35201482 14.95700942 31.12186431 22.9609375 44.18359375 C24.94201362 46.91990771 27.00051586 49.56145819 29.125 52.1875 C30.27699369 53.70367235 31.42351332 55.22403231 32.5625 56.75 C33.03558594 57.37003906 33.50867188 57.99007812 33.99609375 58.62890625 C37.68406674 63.72060599 36.97163071 71.15859813 36.125 77.1875 C34.64630134 81.56901315 32.63336011 85.31367767 30.125 89.1875 C29.74214844 89.79078125 29.35929687 90.3940625 28.96484375 91.015625 C23.8908955 97.92637889 14.37682963 103.93457721 6.125 106.1875 C-1.2507651 107.13511485 -7.82369467 106.79351589 -13.875 102.1875 C-18.01436789 98.37152023 -20.52117918 94.73816536 -21.875 89.1875 C-22.535 89.1875 -23.195 89.1875 -23.875 89.1875 C-23.92183929 89.79688416 -23.96867859 90.40626831 -24.01693726 91.03411865 C-24.97561457 103.43258975 -26.00116742 115.82202946 -27.1640625 128.203125 C-27.27329041 129.37153931 -27.38251831 130.53995361 -27.49505615 131.74377441 C-27.94260631 136.52338373 -28.39144528 141.30284475 -28.84863281 146.08154297 C-29.1884014 149.64241344 -29.52054649 153.20393162 -29.8515625 156.765625 C-29.95465729 157.82315979 -30.05775208 158.88069458 -30.16397095 159.97027588 C-30.84577862 167.39251379 -30.98638217 174.73613653 -30.875 182.1875 C-30.40513672 181.68645752 -29.93527344 181.18541504 -29.45117188 180.66918945 C-8.35891211 158.42363592 19.15746739 146.63540568 49.41772461 143.87011719 C53.5751569 143.47431624 57.21617063 142.65863018 61.125 141.1875 C60.55652344 140.79820312 59.98804688 140.40890625 59.40234375 140.0078125 C49.03637572 132.49724468 43.13545211 122.89128219 40.5390625 110.359375 C38.43305433 94.22655772 40.00243357 76.80688647 50.1328125 63.5625 C61.35142426 50.4285155 77.06158085 43.43096976 94.24221802 42.01272583 C99.5981232 41.73682945 104.95134144 41.75762221 110.3125 41.8125 C111.13192078 41.81748505 111.95134155 41.82247009 112.79559326 41.8276062 C124.82153855 41.91339059 136.39207628 42.35963699 148.125 45.1875 C149.10452637 45.41324707 150.08405273 45.63899414 151.09326172 45.87158203 C168.16059677 49.85284788 184.7092215 55.06954907 201.125 61.1875 C201.93501465 61.48575684 202.7450293 61.78401367 203.57958984 62.09130859 C205.60593391 62.84811435 207.61752285 63.6321952 209.625 64.4375 C210.6665625 64.85515625 211.708125 65.2728125 212.78125 65.703125 C215.75078112 67.58382804 216.28823818 68.80153356 217.125 72.1875 C219.35432032 96.97229652 212.40321983 123.87564601 202.125 146.1875 C201.81723633 146.86216309 201.50947266 147.53682617 201.19238281 148.23193359 C194.1948799 163.22928444 183.50255023 176.2812532 172.125 188.1875 C171.41085937 188.96480469 170.69671875 189.74210938 169.9609375 190.54296875 C160.06888331 200.9768139 147.25475426 209.09783367 132.62695312 209.53125 C116.36981908 209.73430554 105.2800973 203.93162712 93.375 192.875 C83.07420461 181.95812833 76.07045891 166.22669288 76 151.125 C76.04125 149.825625 76.0825 148.52625 76.125 147.1875 C68.91222028 144.75307913 64.50594763 145.45381509 57.625 148.4375 C56.7393335 148.7979541 55.85366699 149.1584082 54.94116211 149.52978516 C53.02303447 150.31191494 51.10899957 151.10414137 49.19873047 151.90527344 C44.82489416 153.72984757 40.42216592 155.4796992 36.01953125 157.23339844 C33.83658004 158.10414773 31.65550861 158.97962791 29.4765625 159.86035156 C24.73101742 161.77658679 20.01431279 163.66116222 15.125 165.1875 C15.125 165.8475 15.125 166.5075 15.125 167.1875 C12.71472123 168.78729607 10.30057224 170.28037013 7.8125 171.75 C0.74158221 176.05098801 -5.64394941 180.72116926 -11.875 186.1875 C-13.24398437 187.32251953 -13.24398437 187.32251953 -14.640625 188.48046875 C-33.11400196 204.29636271 -44.04353694 227.83026245 -46.71166992 251.88500977 C-47.82393644 267.56480872 -47.50146553 283.67964304 -44.875 299.1875 C-44.70355469 300.35152344 -44.53210938 301.51554687 -44.35546875 302.71484375 C-42.82366219 311.18425164 -39.32230784 316.6332526 -33.875 323.1875 C-32.45785667 324.97878967 -31.0411742 326.77044405 -29.625 328.5625 C-28.37634669 330.1052576 -27.12637132 331.64694623 -25.875 333.1875 C-25.18277344 334.06148437 -24.49054688 334.93546875 -23.77734375 335.8359375 C-21.63140783 338.48861393 -19.316023 340.80072195 -16.875 343.1875 C-4.11647334 355.70575309 8.90587896 369.76819544 18.125 385.1875 C18.125 385.8475 18.125 386.5075 18.125 387.1875 C19.14078125 386.95933594 20.1565625 386.73117187 21.203125 386.49609375 C32.49361754 384.08319512 43.03068684 382.53844918 53.578125 388.43359375 C62.44021187 394.53647259 69.89865318 402.84571531 77.40527344 410.50366211 C80.17218746 413.31418423 82.85822755 415.94559734 86.125 418.1875 C86.681875 417.65640625 87.23875 417.1253125 87.8125 416.578125 C96.64004257 408.40668357 104.02408633 404.763246 116.15234375 404.91015625 C126.54470969 405.87974624 134.81441586 411.24596334 141.5625 418.9375 C143.00351102 420.68084849 144.11211563 422.16173125 145.125 424.1875 C146.95464859 424.99547282 148.81502913 425.73444461 150.6875 426.4375 C161.46895068 430.81146932 169.1097351 437.26124276 173.9375 447.9375 C176.19404568 453.66565442 176.99225966 459.05730989 177.125 465.1875 C177.81464844 465.14109375 178.50429688 465.0946875 179.21484375 465.046875 C187.56126978 464.72629897 193.03727387 466.46234925 199.9375 471.0625 C205.03508129 476.01443611 207.79362248 481.47779326 208.42578125 488.5546875 C208.47253767 502.55044255 208.47253767 502.55044255 203.91034102 508.87006313 C201.25760959 510.82756377 199.1435022 510.56984115 195.87204361 510.57898998 C194.55366383 510.58989672 193.23528405 510.60080346 191.87695336 510.6120407 C190.40496781 510.60900881 188.93298284 510.60568349 187.46099854 510.60209656 C185.90421749 510.60912927 184.34744183 510.61745542 182.79067397 510.62696868 C178.50113537 510.64927265 174.21175539 510.65267153 169.92216635 510.65296924 C165.30032835 510.65646215 160.67856169 510.6770683 156.0567627 510.69529724 C145.94522686 510.7317675 135.83373435 510.74568039 125.72214222 510.75513434 C119.41080053 510.76114913 113.09947266 510.77190688 106.78813934 510.78363991 C89.32078248 510.8154037 71.85343793 510.84210461 54.38605118 510.84839153 C53.26766042 510.84879867 52.14926967 510.8492058 50.99698828 510.84962528 C48.72963699 510.85043299 46.46228569 510.85123871 44.1949344 510.85204246 C43.06938534 510.85244804 41.94383629 510.85285362 40.78417969 510.85327148 C39.65725998 510.85367346 38.53034028 510.85407544 37.36927149 510.8544896 C19.10612009 510.86198041 0.84326359 510.90645901 -17.41978118 510.9671289 C-36.16118 511.02888898 -54.9024318 511.06075015 -73.64393449 511.06221896 C-84.17028496 511.06372155 -94.69627197 511.07801934 -105.22252655 511.12503624 C-114.18556164 511.16490262 -123.14810843 511.17738665 -132.11121103 511.15405061 C-136.68551229 511.14295527 -141.25884171 511.14484606 -145.8330307 511.18151855 C-150.02074371 511.21477679 -154.20674161 511.21112043 -158.39444116 511.178053 C-159.90928493 511.17258746 -161.42425048 511.18065107 -162.93893024 511.2036018 C-174.22168764 511.36361603 -174.22168764 511.36361603 -178.27621508 508.47934878 C-180.09007678 506.46209345 -181.5012745 504.52167997 -182.875 502.1875 C-183.53426471 501.15335552 -183.53426471 501.15335552 -184.20684791 500.09831923 C-188.33183899 493.2025693 -188.06481141 483.93498165 -186.875 476.1875 C-184.48157296 468.41520513 -181.02600506 463.10031409 -173.875 459.1875 C-170.90943433 458.19897811 -168.60214396 457.99097952 -165.5 457.8125 C-160.27711355 457.36462715 -157.00485676 456.51250071 -153.3828125 452.55859375 C-151.7597151 450.00621001 -151.04119276 447.56823021 -150.29174805 444.65356445 C-147.56789114 434.13989416 -142.71927456 427.09908762 -133.4375 421.125 C-127.84734512 417.95159894 -123.33632646 417.37770315 -116.875 418.1875 C-114.32608621 419.32334527 -112.1419451 420.60899021 -109.84765625 422.19140625 C-107.89971735 423.41497231 -107.89971735 423.41497231 -105.62109375 422.83984375 C-105.04488281 422.62457031 -104.46867188 422.40929687 -103.875 422.1875 C-102.71031159 416.69859609 -101.75621654 411.25705276 -101.0625 405.6875 C-99.7580983 397.03564812 -96.26419791 389.29273356 -89.875 383.1875 C-84.89894643 379.91752194 -80.47450393 378.01474907 -74.5 377.75 C-72.04316479 377.67621693 -72.04316479 377.67621693 -69.875 377.1875 C-67.51619086 374.48277096 -67.51619086 374.48277096 -65.875 371.1875 C-60.21886359 365.46920825 -55.58660887 364.09108245 -47.875 363.1875 C-49.01775391 361.60775391 -49.01775391 361.60775391 -50.18359375 359.99609375 C-67.8886866 335.34714985 -78.19704851 314.14901466 -78.29867554 283.3046875 C-78.43123939 257.00963821 -82.63969374 234.45854962 -92.875 210.1875 C-93.09414063 211.38246094 -93.31328125 212.57742188 -93.5390625 213.80859375 C-97.4076577 233.68841047 -97.4076577 233.68841047 -106.625 240.0625 C-115.65370863 245.03258913 -124.82029683 246.68136136 -134.8125 244.0625 C-150.08830214 238.93908568 -160.76035706 227.37018342 -167.875 213.1875 C-171.66084055 204.43633298 -173.0468924 195.82151866 -174.20898438 186.41601562 C-175.45694638 177.49336215 -177.59247364 169.43072863 -184.9375 163.6875 C-196.86729586 155.5610648 -214.80696972 156.53901475 -228.62890625 158.859375 C-231.75167068 159.53837609 -234.81526057 160.26793609 -237.875 161.1875 C-236.6341981 154.45363456 -234.66501887 148.9623264 -231.4375 142.9375 C-230.99792969 142.11338623 -230.55835938 141.28927246 -230.10546875 140.44018555 C-218.85696209 120.05028126 -200.06698082 105.96838303 -177.875 99.1875 C-160.41094103 94.43850151 -141.31811536 94.40222056 -123.875 99.1875 C-123.24078125 99.35378906 -122.6065625 99.52007813 -121.953125 99.69140625 C-106.82226239 103.7124032 -93.05936292 110.27704618 -80.875 120.1875 C-80.03582031 120.85136719 -79.19664062 121.51523437 -78.33203125 122.19921875 C-63.47177836 134.66339986 -54.48473859 152.00592136 -51.875 171.1875 C-50.84733466 183.54803037 -52.7416289 194.52571017 -60.875 204.1875 C-69.61366274 212.99351274 -69.61366274 212.99351274 -74.90673828 213.30834961 C-76.89656317 213.31207259 -78.88627617 213.25379079 -80.875 213.1875 C-80.61283691 213.88721924 -80.35067383 214.58693848 -80.08056641 215.30786133 C-78.87755791 218.53512716 -77.68873248 221.76744987 -76.5 225 C-75.88125 226.65032227 -75.88125 226.65032227 -75.25 228.33398438 C-72.7262582 235.23356882 -70.90488238 241.90972548 -69.875 249.1875 C-69.49730469 248.35992188 -69.11960937 247.53234375 -68.73046875 246.6796875 C-68.18003906 245.48601562 -67.62960937 244.29234375 -67.0625 243.0625 C-66.75989258 242.3929126 -66.45728516 241.7233252 -66.14550781 241.03344727 C-64.29862201 237.01233921 -62.31340378 233.16094993 -60.06640625 229.34765625 C-51.83399627 214.98408703 -50.22731906 202.11700052 -49.17285156 185.7578125 C-48.66400501 179.65832724 -47.51611646 173.71010379 -46.31860352 167.71484375 C-46.16061279 166.92207031 -46.00262207 166.12929688 -45.83984375 165.3125 C-45.67838867 164.50312988 -45.51693359 163.69375977 -45.35058594 162.85986328 C-44.80035504 159.76806277 -44.410377 156.66959006 -44.01171875 153.5546875 C-42.907257 145.60859407 -40.89341746 138.02616827 -38.75 130.3125 C-38.37292742 128.93119968 -37.99662171 127.54968979 -37.62109375 126.16796875 C-36.71450985 122.83869575 -35.7977459 119.51233493 -34.875 116.1875 C-34.215 116.1875 -33.555 116.1875 -32.875 116.1875 C-32.76542969 115.60484375 -32.65585937 115.0221875 -32.54296875 114.421875 C-31.39194818 108.47025645 -30.0047813 102.615927 -28.4609375 96.75390625 C-27.76370848 94.13878388 -27.76370848 94.13878388 -27.875 91.1875 C-28.74125 91.950625 -29.6075 92.71375 -30.5 93.5 C-36.66374143 98.51070897 -41.58784089 99.87919018 -49.5546875 99.65234375 C-56.10612541 98.73514244 -60.60770898 95.75909662 -64.94140625 90.84375 C-72.46938459 80.6597626 -74.62943981 70.68557837 -73.875 58.1875 C-71.58913331 43.13013961 -63.46817677 31.52451176 -52.875 21.1875 C-51.77865234 20.07761719 -51.77865234 20.07761719 -50.66015625 18.9453125 C-36.56648286 5.45527876 -19.14142205 0.01165738 0 0 Z " fill="#01AA00" transform="translate(523.875,513.8125)"/>
<path d="M0 0 C0.83402344 -0.01675781 1.66804687 -0.03351562 2.52734375 -0.05078125 C5.72157513 0.40694374 7.49389297 1.36478142 10.0625 3.3125 C11.58203125 5.65234375 11.58203125 5.65234375 12.875 8.25 C16.47934774 14.53707745 20.19235712 16.20968965 26.99609375 18.1484375 C34.39645231 20.31034 39.05428008 22.5353705 43.0625 29.3125 C44.65223479 32.91431703 45.94564098 36.53876516 47.0625 40.3125 C47.73732422 39.56806641 47.73732422 39.56806641 48.42578125 38.80859375 C59.30614159 27.31771219 71.91555846 20.9449361 87.77734375 20.2890625 C100.52501389 20.38000902 109.50322155 27.31623833 118.23216248 36.14257812 C119.66180061 37.60926067 121.08149104 39.08505829 122.5 40.5625 C123.951357 42.05665063 125.40569171 43.54778718 126.86256409 45.03656006 C128.1683464 46.37352123 129.46614916 47.71826247 130.76342773 49.06347656 C132.76991229 51.02628168 134.77166999 52.69947125 137.0625 54.3125 C137.8978125 53.51585937 137.8978125 53.51585937 138.75 52.703125 C147.57754257 44.53168357 154.96158633 40.888246 167.08984375 41.03515625 C177.48220969 42.00474624 185.75191586 47.37096334 192.5 55.0625 C193.94101102 56.80584849 195.04961563 58.28673125 196.0625 60.3125 C197.89214859 61.12047282 199.75252913 61.85944461 201.625 62.5625 C212.40645068 66.93646932 220.0472351 73.38624276 224.875 84.0625 C227.13154568 89.79065442 227.92975966 95.18230989 228.0625 101.3125 C228.75214844 101.26609375 229.44179688 101.2196875 230.15234375 101.171875 C238.49876978 100.85129897 243.97477387 102.58734925 250.875 107.1875 C255.97258129 112.13943611 258.73112248 117.60279326 259.36328125 124.6796875 C259.41003767 138.67544255 259.41003767 138.67544255 254.84784102 144.99506313 C252.19510959 146.95256377 250.0810022 146.69484115 246.80954361 146.70398998 C245.49116383 146.71489672 244.17278405 146.72580346 242.81445336 146.7370407 C241.34246781 146.73400881 239.87048284 146.73068349 238.39849854 146.72709656 C236.84171749 146.73412927 235.28494183 146.74245542 233.72817397 146.75196868 C229.43863537 146.77427265 225.14925539 146.77767153 220.85966635 146.77796924 C216.23782835 146.78146215 211.61606169 146.8020683 206.9942627 146.82029724 C196.88272686 146.8567675 186.77123435 146.87068039 176.65964222 146.88013434 C170.34830053 146.88614913 164.03697266 146.89690688 157.72563934 146.90863991 C140.25828248 146.9404037 122.79093793 146.96710461 105.32355118 146.97339153 C104.20516042 146.97379867 103.08676967 146.9742058 101.93448828 146.97462528 C99.66713699 146.97543299 97.39978569 146.97623871 95.1324344 146.97704246 C94.00688534 146.97744804 92.88133629 146.97785362 91.72167969 146.97827148 C90.59475998 146.97867346 89.46784028 146.97907544 88.30677149 146.9794896 C70.04362009 146.98698041 51.78076359 147.03145901 33.51771882 147.0921289 C14.77632 147.15388898 -3.9649318 147.18575015 -22.70643449 147.18721896 C-33.23278496 147.18872155 -43.75877197 147.20301934 -54.28502655 147.25003624 C-63.24806164 147.28990262 -72.21060843 147.30238665 -81.17371103 147.27905061 C-85.74801229 147.26795527 -90.32134171 147.26984606 -94.8955307 147.30651855 C-99.08324371 147.33977679 -103.26924161 147.33612043 -107.45694116 147.303053 C-108.97178493 147.29758746 -110.48675048 147.30565107 -112.00143024 147.3286018 C-123.28418764 147.48861603 -123.28418764 147.48861603 -127.33871508 144.60434878 C-129.15257678 142.58709345 -130.5637745 140.64667997 -131.9375 138.3125 C-132.59676471 137.27835552 -132.59676471 137.27835552 -133.26934791 136.22331923 C-137.39433899 129.3275693 -137.12731141 120.05998165 -135.9375 112.3125 C-133.54407296 104.54020513 -130.08850506 99.22531409 -122.9375 95.3125 C-119.97193433 94.32397811 -117.66464396 94.11597952 -114.5625 93.9375 C-109.33961355 93.48962715 -106.06735676 92.63750071 -102.4453125 88.68359375 C-100.8222151 86.13121001 -100.10369276 83.69323021 -99.35424805 80.77856445 C-96.63039114 70.26489416 -91.78177456 63.22408762 -82.5 57.25 C-76.90984512 54.07659894 -72.39882646 53.50270315 -65.9375 54.3125 C-63.38858621 55.44834527 -61.2044451 56.73399021 -58.91015625 58.31640625 C-56.96221735 59.53997231 -56.96221735 59.53997231 -54.68359375 58.96484375 C-54.10738281 58.74957031 -53.53117187 58.53429687 -52.9375 58.3125 C-51.77281159 52.82359609 -50.81871654 47.38205276 -50.125 41.8125 C-48.8205983 33.16064812 -45.32669791 25.41773356 -38.9375 19.3125 C-33.96144643 16.04252194 -29.53700393 14.13974907 -23.5625 13.875 C-21.10566479 13.80121693 -21.10566479 13.80121693 -18.9375 13.3125 C-16.57869086 10.60777096 -16.57869086 10.60777096 -14.9375 7.3125 C-10.53187969 2.85846628 -6.33294592 0.02927402 0 0 Z " fill="#080B0C" transform="translate(472.9375,877.6875)"/>
<path d="M0 0 C1.22913116 0.00747757 1.22913116 0.00747757 2.48309326 0.0151062 C14.50903855 0.10089059 26.07957628 0.54713699 37.8125 3.375 C38.79202637 3.60074707 39.77155273 3.82649414 40.78076172 4.05908203 C57.84809677 8.04034788 74.3967215 13.25704907 90.8125 19.375 C91.62251465 19.67325684 92.4325293 19.97151367 93.26708984 20.27880859 C95.29343391 21.03561435 97.30502285 21.8196952 99.3125 22.625 C100.87484375 23.25148438 100.87484375 23.25148438 102.46875 23.890625 C105.445809 25.7760957 105.98323195 26.97548593 106.8125 30.375 C107.51151709 39.86504552 108.16207347 51.73798981 103.8125 60.375 C103.2829391 62.31672332 102.75709475 64.25971177 102.26660156 66.21166992 C94.80769986 95.68565207 77.23146532 125.86855988 50.640625 141.80078125 C49.70734375 142.32027344 48.7740625 142.83976563 47.8125 143.375 C46.44351563 144.13876953 46.44351563 144.13876953 45.046875 144.91796875 C35.52197066 149.56331144 25.4437347 149.94802412 15.22265625 147.5234375 C2.03906005 142.91466546 -8.12377876 134.47280562 -14.625 122.125 C-17.29982703 115.46119179 -17.54941222 108.06017424 -15.05859375 101.3203125 C-13.86710701 98.92376082 -12.61682911 96.63640284 -11.1875 94.375 C-13.38567683 94.25944995 -13.38567683 94.25944995 -16.0625 95.4375 C-19.12309554 96.35567866 -20.28490837 96.49138139 -23.1875 95.375 C-22.1975 95.045 -21.2075 94.715 -20.1875 94.375 C-21.71117187 94.24544922 -21.71117187 94.24544922 -23.265625 94.11328125 C-35.85794502 92.89090482 -46.46195985 89.87427639 -56.1875 81.375 C-56.78046875 80.89804687 -57.3734375 80.42109375 -57.984375 79.9296875 C-64.44264083 74.24298441 -69.23537377 65.77951508 -70.73046875 57.29296875 C-71.12560086 43.23755495 -67.05487523 29.79900027 -57.9375 19.125 C-42.46526254 2.83709269 -21.41063176 -0.21916309 0 0 Z " fill="#63CE01" transform="translate(634.1875,555.625)"/>
<path d="M0 0 C1.05058594 -0.01224609 2.10117187 -0.02449219 3.18359375 -0.03710938 C9.19578003 -0.04839633 14.36830293 0.43274776 20.125 2.1875 C19.99222656 2.82816406 19.85945312 3.46882812 19.72265625 4.12890625 C16.81868326 18.35201482 14.95700942 31.12186431 22.9609375 44.18359375 C24.94201362 46.91990771 27.00051586 49.56145819 29.125 52.1875 C30.27699369 53.70367235 31.42351332 55.22403231 32.5625 56.75 C33.03558594 57.37003906 33.50867188 57.99007812 33.99609375 58.62890625 C37.68406674 63.72060599 36.97163071 71.15859813 36.125 77.1875 C34.64630134 81.56901315 32.63336011 85.31367767 30.125 89.1875 C29.74214844 89.79078125 29.35929688 90.3940625 28.96484375 91.015625 C23.8908955 97.92637889 14.37682963 103.93457721 6.125 106.1875 C-1.2507651 107.13511485 -7.82369467 106.79351589 -13.875 102.1875 C-18.01436789 98.37152023 -20.52117918 94.73816536 -21.875 89.1875 C-22.535 89.1875 -23.195 89.1875 -23.875 89.1875 C-23.92183929 89.79688416 -23.96867859 90.40626831 -24.01693726 91.03411865 C-24.97561457 103.43258975 -26.00116742 115.82202946 -27.1640625 128.203125 C-27.27329041 129.37153931 -27.38251831 130.53995361 -27.49505615 131.74377441 C-27.94260631 136.52338373 -28.39144528 141.30284475 -28.84863281 146.08154297 C-29.1884014 149.64241344 -29.52054649 153.20393162 -29.8515625 156.765625 C-29.95465729 157.82315979 -30.05775208 158.88069458 -30.16397095 159.97027588 C-30.84577862 167.39251379 -30.98638217 174.73613653 -30.875 182.1875 C-30.40513672 181.68645752 -29.93527344 181.18541504 -29.45117188 180.66918945 C-8.35891211 158.42363592 19.15746739 146.63540568 49.41772461 143.87011719 C53.5751569 143.47431624 57.21617063 142.65863018 61.125 141.1875 C60.55652344 140.79820312 59.98804688 140.40890625 59.40234375 140.0078125 C49.92990977 133.14464665 43.98928914 124.58170516 41.125 113.1875 C40.58693255 109.52134551 40.26820053 105.88923375 40.125 102.1875 C41.90212373 104.85318559 43.25852544 107.45455089 44.6875 110.3125 C51.35201134 122.42688751 62.01221439 129.73831753 75.1875 133.5625 C80.81087921 134.45509987 86.44351854 134.85838979 92.125 135.1875 C91.795 135.8475 91.465 136.5075 91.125 137.1875 C94.425 136.1975 97.725 135.2075 101.125 134.1875 C100.691875 134.90292969 100.25875 135.61835937 99.8125 136.35546875 C95.51448396 144.04613171 93.52682112 150.3922242 95.125 159.1875 C99.68066502 171.8020312 107.32646756 179.53701406 119.06640625 185.7421875 C128.80274651 190.05591022 139.16795344 191.02170391 149.48828125 188.30078125 C152.516258 187.11865284 155.28578197 185.76797123 158.125 184.1875 C159.03507813 183.69121094 159.94515625 183.19492187 160.8828125 182.68359375 C188.10017798 166.59355575 204.56651906 135.73872315 212.21484375 105.98046875 C212.91674296 103.05538662 213.57324538 100.14374318 214.125 97.1875 C214.455 97.1875 214.785 97.1875 215.125 97.1875 C214.34494105 132.07740957 195.37847325 163.51205177 172.125 188.1875 C171.40828125 188.96867188 170.6915625 189.74984375 169.953125 190.5546875 C160.05510396 200.97919902 147.25312317 209.097882 132.62695312 209.53125 C116.36981908 209.73430554 105.2800973 203.93162712 93.375 192.875 C83.07420461 181.95812833 76.07045891 166.22669288 76 151.125 C76.04125 149.825625 76.0825 148.52625 76.125 147.1875 C68.91222028 144.75307913 64.50594763 145.45381509 57.625 148.4375 C56.7393335 148.7979541 55.85366699 149.1584082 54.94116211 149.52978516 C53.02303447 150.31191494 51.10899957 151.10414137 49.19873047 151.90527344 C44.82489416 153.72984757 40.42216592 155.4796992 36.01953125 157.23339844 C33.83658004 158.10414773 31.65550861 158.97962791 29.4765625 159.86035156 C24.73101742 161.77658679 20.01431279 163.66116222 15.125 165.1875 C15.125 165.8475 15.125 166.5075 15.125 167.1875 C12.71472123 168.78729607 10.30057224 170.28037013 7.8125 171.75 C0.74158221 176.05098801 -5.64394941 180.72116926 -11.875 186.1875 C-13.24398437 187.32251953 -13.24398437 187.32251953 -14.640625 188.48046875 C-33.11400196 204.29636271 -44.04353694 227.83026245 -46.71166992 251.88500977 C-47.82393644 267.56480872 -47.50146553 283.67964304 -44.875 299.1875 C-44.70355469 300.35152344 -44.53210938 301.51554687 -44.35546875 302.71484375 C-42.82366219 311.18425164 -39.32230784 316.6332526 -33.875 323.1875 C-32.45785667 324.97878967 -31.0411742 326.77044405 -29.625 328.5625 C-28.37634669 330.1052576 -27.12637132 331.64694623 -25.875 333.1875 C-25.18277344 334.06148437 -24.49054688 334.93546875 -23.77734375 335.8359375 C-21.63140783 338.48861393 -19.316023 340.80072195 -16.875 343.1875 C-4.11647334 355.70575309 8.90587896 369.76819544 18.125 385.1875 C18.125 385.8475 18.125 386.5075 18.125 387.1875 C18.785 387.5175 19.445 387.8475 20.125 388.1875 C19.39796875 388.49300781 18.6709375 388.79851562 17.921875 389.11328125 C9.11628846 393.12095205 2.92321401 398.41339313 -3.875 405.1875 C-5.41868106 402.39506881 -6.10970238 400.15025933 -6.5 397 C-9.84425001 379.53272493 -21.54923639 364.62315409 -33.3671875 351.953125 C-58.59423223 324.13264576 -63.59952999 293.63880574 -61.875 257.1875 C-60.97292616 245.19543351 -58.27876497 233.69415486 -54.875 222.1875 C-52.12899007 212.76392348 -50.7898492 203.64002145 -50 193.875 C-49.28640744 185.17437408 -48.053452 176.68891825 -46.37158203 168.1237793 C-45.41802716 163.26552507 -44.6365014 158.43554711 -44.0078125 153.5234375 C-42.90450118 145.58866432 -40.89040487 138.01532667 -38.75 130.3125 C-38.37292742 128.93119968 -37.99662171 127.54968979 -37.62109375 126.16796875 C-36.71450985 122.83869575 -35.7977459 119.51233493 -34.875 116.1875 C-34.215 116.1875 -33.555 116.1875 -32.875 116.1875 C-32.76542969 115.60484375 -32.65585937 115.0221875 -32.54296875 114.421875 C-31.39194818 108.47025645 -30.0047813 102.615927 -28.4609375 96.75390625 C-27.76370848 94.13878388 -27.76370848 94.13878388 -27.875 91.1875 C-28.74125 91.950625 -29.6075 92.71375 -30.5 93.5 C-36.66374143 98.51070897 -41.58784089 99.87919018 -49.5546875 99.65234375 C-56.10612541 98.73514244 -60.60770898 95.75909662 -64.94140625 90.84375 C-72.46938459 80.6597626 -74.62943981 70.68557837 -73.875 58.1875 C-71.58913331 43.13013961 -63.46817677 31.52451176 -52.875 21.1875 C-52.14410156 20.44757812 -51.41320312 19.70765625 -50.66015625 18.9453125 C-36.56648286 5.45527876 -19.14142205 0.01165738 0 0 Z " fill="#06AC03" transform="translate(523.875,513.8125)"/>
<path d="M0 0 C1.05058594 -0.01224609 2.10117187 -0.02449219 3.18359375 -0.03710938 C9.19578003 -0.04839633 14.36830293 0.43274776 20.125 2.1875 C19.125 5.1875 19.125 5.1875 17.4375 7.25 C9.10999359 17.82818382 4.65036962 28.60537805 6.125 42.1875 C6.8436268 45.84289771 7.72044787 49.45551297 8.70141602 53.04907227 C11.05698064 61.89580565 10.89434881 70.38729539 6.25 78.4375 C1.3494898 84.77933673 1.3494898 84.77933673 -2.875 86.1875 C-8.15722207 86.58615827 -11.44463211 86.14107859 -15.875 83.1875 C-18.35955413 80.63756287 -20.64682329 77.96283253 -22.875 75.1875 C-23.266875 76.156875 -23.65875 77.12625 -24.0625 78.125 C-25.875 81.1875 -25.875 81.1875 -28.25 82.3125 C-32.08541895 82.129861 -33.22575095 80.9692115 -35.875 78.1875 C-41.82751994 70.89770161 -41.6077109 63.17890945 -40.875 54.1875 C-40.3515625 51.73828125 -40.3515625 51.73828125 -39.875 50.1875 C-43.14257092 57.267237 -44.33079896 64.5752895 -42.3359375 72.265625 C-41.36623806 74.63126538 -40.10704773 76.80408063 -38.78515625 78.98828125 C-35.00469246 85.27111608 -35.00469246 85.27111608 -35.875 89.1875 C-38.02146483 91.58163385 -39.5415066 92.12080132 -42.6875 92.75 C-47.27748388 91.94000284 -49.85605897 89.66047702 -52.875 86.1875 C-55.2061336 81.52523281 -55.05092887 77.28943726 -54.875 72.1875 C-57.00680267 78.58290802 -55.72718057 85.61353564 -54.875 92.1875 C-60.30815772 90.65942439 -63.8369463 86.92079493 -67.875 83.1875 C-69.050625 82.2284375 -69.050625 82.2284375 -70.25 81.25 C-75.17502329 74.99900891 -74.42823127 65.70073754 -73.875 58.1875 C-71.55380072 43.12080648 -63.48326277 31.53923294 -52.875 21.1875 C-52.14410156 20.44757812 -51.41320312 19.70765625 -50.66015625 18.9453125 C-36.56648286 5.45527876 -19.14142205 0.01165738 0 0 Z " fill="#63CE01" transform="translate(523.875,513.8125)"/>
<path d="M0 0 C1.24037018 0.00373123 1.24037018 0.00373123 2.50579834 0.00753784 C14.5993979 0.06389949 26.19935538 0.46831493 38 3.3125 C38.97952637 3.53824707 39.95905273 3.76399414 40.96826172 3.99658203 C62.25816973 8.96283971 82.89737275 15.72735137 103 24.3125 C102.319375 24.9725 101.63875 25.6325 100.9375 26.3125 C98.73132401 28.50013669 96.7402549 30.80290556 94.75 33.1875 C86.91560381 42.133875 76.945547 48.54209912 65 50.3125 C63.06348981 50.37783435 61.12497139 50.39834303 59.1875 50.375 C58.21167969 50.36597656 57.23585938 50.35695313 56.23046875 50.34765625 C55.12638672 50.33025391 55.12638672 50.33025391 54 50.3125 C57.54108703 40.52440095 65.2543335 36.78731726 74.18359375 32.59765625 C75.11300781 32.17355469 76.04242187 31.74945312 77 31.3125 C66.12833256 30.95694861 55.59884163 34.64122064 47 41.3125 C45.1540774 43.14494871 43.34798669 44.98640774 41.5625 46.875 C34.62038415 54.08148415 26.04448062 58.35249654 16 59.3125 C7.87240829 59.18490829 7.87240829 59.18490829 5 56.3125 C5 49.52393448 9.36554704 45.09650705 13.7890625 40.421875 C19.73760745 34.79156497 26.98708854 31.07234504 35 29.3125 C17.05297938 29.39156176 -1.97879139 37.86563683 -14.83203125 50.08984375 C-17.72008714 53.0507515 -20.39950317 56.09609602 -23 59.3125 C-24.485 58.8175 -24.485 58.8175 -26 58.3125 C-25.7834152 49.05842239 -23.18619515 41.56428804 -17 34.5625 C-11.14746532 29.12247878 -2.84639203 25.56675597 5 24.3125 C5 23.6525 5 22.9925 5 22.3125 C-8.37747098 23.17460369 -19.91975105 24.47226469 -29.5625 34.8125 C-32.2694719 38.13852992 -34.37394179 41.34898312 -36 45.3125 C-36.66 45.3125 -37.32 45.3125 -38 45.3125 C-41.87075413 37.24842889 -42.74250172 28.57090059 -39.8984375 19.98828125 C-36.94563273 13.6958069 -33.32015037 8.78268552 -28 4.3125 C-28.33 3.6525 -28.66 2.9925 -29 2.3125 C-19.35249091 -0.00773656 -9.85638477 -0.04712265 0 0 Z " fill="#D8DA2F" transform="translate(634,555.6875)"/>
<path d="M0 0 C0.95132813 0.24943359 0.95132813 0.24943359 1.921875 0.50390625 C17.05273761 4.5249032 30.81563708 11.08954618 43 21 C43.83917969 21.66386719 44.67835938 22.32773437 45.54296875 23.01171875 C60.40322164 35.47589986 69.39026141 52.81842136 72 72 C73.02766534 84.36053037 71.1333711 95.33821017 63 105 C58.39010258 109.64542649 54.19717762 113.83172749 47.4375 114.1875 C44 114 44 114 41 113 C39.8125 109.4375 39.8125 109.4375 39 106 C39.7734375 105.91363281 40.546875 105.82726562 41.34375 105.73828125 C49.06270736 104.69698626 55.41375733 103.36586064 60.52734375 97.140625 C65.61240913 89.53513591 66.39023084 82.19964241 66.375 73.25 C66.37258301 71.78336914 66.37258301 71.78336914 66.37011719 70.28710938 C66.20306522 60.46707391 63.94460913 52.85537635 58 45 C58.165 45.78375 58.33 46.5675 58.5 47.375 C59.77730664 56.63547314 59.36977638 62.99968667 54.0625 70.875 C51.95897403 73.04226918 50.95405337 73.68349428 48 74 C46.86409181 71.72818363 46.84811204 70.37660747 46.7890625 67.8515625 C46.38037666 54.74071835 45.78677086 43.43018451 38.40234375 32.15625 C37 30 37 30 35.98046875 27.796875 C34.56884959 25.20984386 32.72417153 24.86026469 30 24 C30.33 25.19625 30.66 26.3925 31 27.625 C33.0478215 37.04794677 32.99787045 46.16383431 29.265625 55.109375 C27.77482216 57.33637677 26.46331458 58.02709424 24 59 C21.31132905 54.99789783 20.0145793 50.97173212 18.75 46.375 C15.16563099 34.276546 9.12689472 24.61256187 -2.03515625 18.27734375 C-8.28912477 15.03143355 -8.28912477 15.03143355 -15 13 C-14.43410156 13.48210938 -13.86820312 13.96421875 -13.28515625 14.4609375 C-12.55167969 15.09257813 -11.81820312 15.72421875 -11.0625 16.375 C-10.33160156 17.00148438 -9.60070312 17.62796875 -8.84765625 18.2734375 C-6.74703862 20.23638252 -6.0739189 21.23806673 -5.796875 24.09375 C-5.77367187 25.28484375 -5.77367187 25.28484375 -5.75 26.5 C-5.72421875 27.2940625 -5.6984375 28.088125 -5.671875 28.90625 C-5.78015625 29.5971875 -5.8884375 30.288125 -6 31 C-9 33 -9 33 -12.875 32.5 C-17.00938996 31.47650281 -20.66221882 29.8335067 -24.5 28 C-40.18084077 20.60167467 -56.79952715 21.38021875 -73 27 C-76.12552599 28.14602619 -79.05906099 29.44206762 -82 31 C-82.79664063 31.41894531 -83.59328125 31.83789062 -84.4140625 32.26953125 C-94.23352647 37.78727958 -101.7187165 45.12540315 -108.40625 54.12890625 C-109.19515625 55.05509766 -109.19515625 55.05509766 -110 56 C-110.66 56 -111.32 56 -112 56 C-110.06729596 41.006902 -97.29923965 26.08693878 -86.1875 16.6875 C-61.35282368 -1.93850724 -30.06223296 -8.24716126 0 0 Z " fill="#64CF04" transform="translate(400,613)"/>
<path d="M0 0 C4.45066566 2.41077723 8.11669894 4.99809693 10.55078125 9.50390625 C11.57053333 13.06048002 11.30181534 15.8998089 10.96875 19.58203125 C10.85978798 21.00234049 10.75442615 22.42292973 10.65234375 23.84375 C10.59933105 24.57126465 10.54631836 25.2987793 10.49169922 26.04833984 C10.25089779 29.66354014 10.10518207 33.27228453 10.03125 36.89453125 C9.99386719 38.16554688 9.95648437 39.4365625 9.91796875 40.74609375 C10.43262816 45.00501844 11.57514174 47.01618349 14.34375 50.26953125 C16.92934489 52.01790587 16.92934489 52.01790587 19.78125 53.26953125 C25.24534893 56.04170427 28.56031419 58.70265963 31.34375 64.26953125 C31.72731511 68.87231261 31.79339438 71.33427095 29.78125 75.51953125 C25.55620146 80.28625268 20.57602916 82.79232417 14.23046875 83.5078125 C8.34518993 83.70642759 5.09591094 82.81035705 0.34375 79.26953125 C-1.96875 76.08203125 -1.96875 76.08203125 -3.65625 73.26953125 C-7.48577367 71.35476942 -12.75173536 72.41832663 -17.00390625 72.66015625 C-19.31833331 72.72056544 -21.38312181 72.7154184 -23.65625 72.26953125 C-27.3324622 68.76510467 -28.62824157 66.32970206 -28.76171875 61.27734375 C-28.80789754 58.82384456 -28.84358741 56.37581886 -28.82226562 53.921875 C-28.88551044 51.57223428 -29.02695699 49.53560194 -29.65625 47.26953125 C-33.26995039 43.98386809 -37.21832601 42.56164007 -41.78125 40.95703125 C-46.23629016 39.13300736 -49.22946159 37.82586954 -51.171875 33.296875 C-52.43626795 28.0047787 -52.80880165 23.36372948 -50.140625 18.515625 C-46.77455103 15.47239775 -43.73958192 15.49148354 -39.40625 15.45703125 C-38.28863281 15.41932617 -38.28863281 15.41932617 -37.1484375 15.38085938 C-35.31827207 15.32220023 -33.48720547 15.29295045 -31.65625 15.26953125 C-31.70265625 14.3775 -31.7490625 13.48546875 -31.796875 12.56640625 C-31.85101562 10.81070313 -31.85101562 10.81070313 -31.90625 9.01953125 C-31.95265625 7.859375 -31.9990625 6.69921875 -32.046875 5.50390625 C-31.65625 2.26953125 -31.65625 2.26953125 -29.828125 -0.08984375 C-22.33934774 -5.74683377 -8.06339408 -3.43665742 0 0 Z " fill="#4D3640" transform="translate(578.65625,908.73046875)"/>
<path d="M0 0 C2.74522153 1.57618446 5.08240058 3.40408736 7.5703125 5.35546875 C11.55734488 8.05408713 15.25799061 8.67636811 20 8 C22.55518101 6.87029779 24.92410726 5.53493508 27.359375 4.16796875 C32.16842928 2.04088705 36.87656312 2.12371562 42 3 C47.58752718 5.17959738 51.79641074 8.99439178 55 14 C55.94449495 19.8768575 54.1771138 22.23432929 51 27 C50.50319521 31.71964549 51.23377053 34.69481568 53 39 C53.125 42.3125 53.125 42.3125 53 45 C49.169312 47.51010872 45.16852441 47.31911257 40.75 47.4375 C31.70960419 47.87089156 26.24352521 48.46105418 19.8125 55.25 C13.42740188 61.96479337 5.55778377 67.2999374 -3.9375 67.6875 C-8.60848454 67.33446047 -11.53503127 66.29594586 -15 63 C-17.36123664 59.94297576 -18.79779447 56.93014542 -19.625 53.125 C-18.66340725 48.31703626 -15.86646335 44.8986872 -13 41 C-10.7026341 38.19265527 -10.7026341 38.19265527 -11.125 35.0625 C-12.85078268 29.02226062 -17.93506679 26.59977445 -22.9765625 23.3671875 C-25 22 -25 22 -27 20 C-27.46295957 15.98768371 -27.28593076 13.58377529 -25.5 9.9375 C-18.45895033 1.66426664 -10.89949141 -1.69429059 0 0 Z " fill="#725E67" transform="translate(456,925)"/>
<path d="M0 0 C0.86625 0.53625 1.7325 1.0725 2.625 1.625 C5.68721355 4.68721355 7.63433644 8.10374172 9.765625 11.85546875 C10.82596984 13.9126677 10.82596984 13.9126677 12 15 C13.48134215 15.03841072 14.9644848 15.01179686 16.4453125 14.95703125 C17.35796875 14.93576172 18.270625 14.91449219 19.2109375 14.89257812 C21.13058756 14.83982635 23.04994999 14.7750192 24.96875 14.69726562 C31.24553847 14.57858685 34.9136357 15.22733244 40 19 C42.54640161 22.93534795 43.32617388 25.81682154 42.5625 30.375 C40.09829368 39.14160067 34.64239785 45.2815155 27 50 C23.78222695 51.79102462 21.70410762 52.20578376 18 52 C18 52.66 18 53.32 18 54 C18.721875 54.20625 19.44375 54.4125 20.1875 54.625 C23.95992464 56.46929649 25.69213669 58.50523557 28 62 C28.61413512 65.95775969 28.64901705 67.97238968 26.5 71.375 C22.9849369 73.65979101 20.1654919 73.72230054 16 74 C15.5875 73.2575 15.175 72.515 14.75 71.75 C13.06254382 69.09828315 11.29127911 67.13325986 9 65 C8.47792969 65.3609375 7.95585938 65.721875 7.41796875 66.09375 C1.2680209 69.97112518 -3.778973 71.15025209 -11 70 C-17.44994772 67.97225724 -21.04989573 64.52876011 -24.3125 58.625 C-25.23778858 55.09207996 -24.85016375 52.53144943 -24 49 C-22.10466125 46.41544715 -21.11173483 46.03724494 -18 45 C-13.90636784 44.61380829 -11.53119946 44.73960811 -7.8125 46.5625 C-4.44630975 49.47986488 -2.98045718 52.03908564 -1 56 C3.47883696 55.55296014 3.47883696 55.55296014 7 53 C6.46890625 52.78085937 5.9378125 52.56171875 5.390625 52.3359375 C0.3074763 50.05408608 -2.31694017 48.06800191 -5 43 C-5.38671875 41.82179688 -5.7734375 40.64359375 -6.171875 39.4296875 C-7.67316608 35.75039617 -7.67316608 35.75039617 -11.15234375 34.65234375 C-12.40144531 34.41644531 -13.65054688 34.18054688 -14.9375 33.9375 C-23.42702063 32.07845076 -31.52865712 29.55023704 -37.75 23.1875 C-39.70350437 18.20606385 -40.10940113 13.92817895 -38.1875 8.85546875 C-34.93127344 2.94225176 -29.52949757 -1.46203395 -23.11328125 -3.640625 C-14.75856487 -5.06139008 -7.08551595 -4.8479846 0 0 Z " fill="#4C353F" transform="translate(643,938)"/>
<path d="M0 0 C4.29060782 1.48613232 7.78764113 3.73136015 11.4375 6.375 C12.04585693 6.81416748 12.65421387 7.25333496 13.28100586 7.70581055 C31.13008095 20.79023605 46.11409469 36.03501264 59 54 C59.66644531 54.92039062 60.33289063 55.84078125 61.01953125 56.7890625 C72.49947654 73.72668669 82.91831416 96.52533653 85 117 C85.38929688 116.13761719 85.77859375 115.27523437 86.1796875 114.38671875 C91.0546743 103.70980061 96.45823772 93.344064 102 83 C103 85 103 85 102.328125 87.29296875 C101.97234375 88.24816406 101.6165625 89.20335937 101.25 90.1875 C98.77177157 97.33163437 97.27536714 104.55981262 96 112 C95.82936035 112.91338135 95.6587207 113.8267627 95.48291016 114.76782227 C93.89617629 123.89828952 93.60146828 132.82399567 93.625 142.0625 C93.62521149 142.83046906 93.62542297 143.59843811 93.62564087 144.38967896 C93.70456355 173.15456317 101.737015 195.3643822 120.82421875 217.2421875 C146.97486154 247.24536144 146.97486154 247.24536144 149 265 C148.62875 264.484375 148.2575 263.96875 147.875 263.4375 C147.25625 262.633125 146.6375 261.82875 146 261 C145.29875 259.88625 144.5975 258.7725 143.875 257.625 C140.05249574 253.08273666 134.68289916 251.79503915 129.18115234 250.12939453 C123.83937636 248.48567933 119.6971315 246.74635525 116.62890625 241.78125 C115.91843507 240.26141421 115.21009753 238.74057917 114.50390625 237.21875 C113.06542065 234.78275827 113.06542065 234.78275827 110.203125 233.20703125 C106.15453562 230.41745442 103.9167945 227.21955605 101.1875 223.1875 C100.66978027 222.43484863 100.15206055 221.68219727 99.61865234 220.90673828 C84.34459839 198.48312716 76.66651045 178.48909937 76.57632446 151.1171875 C76.49903128 135.78549599 76.29890038 120.82969617 72 106 C71.78714355 105.24541504 71.57428711 104.49083008 71.35498047 103.71337891 C67.9764899 92.04468676 63.26116291 80.93354316 58 70 C57.65598145 69.28457031 57.31196289 68.56914063 56.95751953 67.83203125 C49.87999506 53.3404287 41.09071193 39.86349839 29.9921875 28.11328125 C28.16842602 26.17866368 26.49582305 24.18099905 24.8125 22.125 C18.56968617 14.9464951 10.83961765 8.65063396 3.0625 3.19921875 C2.051875 2.47347656 1.04125 1.74773438 0 1 C0 0.67 0 0.34 0 0 Z " fill="#046F04" transform="translate(369,646)"/>
<path d="M0 0 C8.98362665 6.54559228 14.37473995 15.59220435 16.44921875 26.48046875 C16.73889526 27.95773437 16.73889526 27.95773437 17.03442383 29.46484375 C17.23704834 30.50511719 17.43967285 31.54539062 17.6484375 32.6171875 C22.14030693 54.69435347 28.87155144 77.2229631 46.05078125 92.9296875 C47.3359375 94.3046875 47.3359375 94.3046875 47.3359375 96.3046875 C37.01518884 98.96810651 27.53207874 96.82237194 18.3359375 91.7421875 C4.73844922 83.04661506 -4.15139959 69.64400161 -8.6640625 54.3046875 C-9.70391525 49.08337886 -10.34550116 43.81464455 -10.99804688 38.53320312 C-12.24600888 29.61054965 -14.38153614 21.54791613 -21.7265625 15.8046875 C-28.12525276 11.44597572 -33.7704483 10.27917836 -41.5 9.98828125 C-42.56347656 9.94638672 -43.62695312 9.90449219 -44.72265625 9.86132812 C-45.81707031 9.82201172 -46.91148437 9.78269531 -48.0390625 9.7421875 C-49.15667969 9.69900391 -50.27429688 9.65582031 -51.42578125 9.61132812 C-54.17176449 9.50571339 -56.91783131 9.4036078 -59.6640625 9.3046875 C-44.27239671 -6.54282902 -19.48008628 -12.39641854 0 0 Z " fill="#036F03" transform="translate(360.6640625,661.6953125)"/>
<path d="M0 0 C1.13277543 3.39832628 0.82852199 5.71787097 0.0625 9.1875 C-2.05391603 20.23665128 -1.20765344 30.13346769 4.8359375 39.99609375 C6.81701362 42.73240771 8.87551586 45.37395819 11 48 C12.15199369 49.51617235 13.29851332 51.03653231 14.4375 52.5625 C14.91058594 53.18253906 15.38367188 53.80257812 15.87109375 54.44140625 C19.55906674 59.53310599 18.84663071 66.97109813 18 73 C16.52130134 77.38151315 14.50836011 81.12617767 12 85 C11.61714844 85.60328125 11.23429688 86.2065625 10.83984375 86.828125 C5.7658955 93.73887889 -3.74817037 99.74707721 -12 102 C-19.3757651 102.94761485 -25.94869467 102.60601589 -32 98 C-36.13936789 94.18402023 -38.64617918 90.55066536 -40 85 C-40.66 85 -41.32 85 -42 85 C-42 86.65 -42 88.3 -42 90 C-43.98 90.99 -43.98 90.99 -46 92 C-45.67 90.02 -45.34 88.04 -45 86 C-45.43570313 86.39832031 -45.87140625 86.79664063 -46.3203125 87.20703125 C-53.19312865 93.32115991 -58.30312159 95.73183025 -67.6796875 95.46484375 C-74.34428341 94.53180032 -78.91728713 91.5172357 -83.171875 86.375 C-84.88366114 83.96480512 -86.48539175 81.5377211 -88 79 C-87.505 78.01 -87.505 78.01 -87 77 C-86.57589844 77.45890625 -86.15179688 77.9178125 -85.71484375 78.390625 C-81.76420952 82.52359619 -78.09284198 85.40161123 -73 88 C-73.144375 87.443125 -73.28875 86.88625 -73.4375 86.3125 C-75.14721327 79.28367879 -76.37889784 72.75779568 -73 66 C-72 69 -72 69 -72.125 72.25 C-71.94203694 77.73889179 -70.47482854 81.445451 -66.6875 85.4375 C-63.47160336 87.30720735 -61.66411465 87.477928 -58 87 C-56.515 86.01 -56.515 86.01 -55 85 C-55.33965582 79.56550684 -56.7231742 76.34860892 -59.84375 71.89453125 C-63.06547168 66.61569674 -62.54655788 59.95383716 -62 54 C-61.02281243 50.47564103 -59.82473517 47.1766375 -58 44 C-57.01 43.505 -57.01 43.505 -56 43 C-56.47953125 44.50626953 -56.47953125 44.50626953 -56.96875 46.04296875 C-58.97990455 53.13728077 -59.50472528 61.20258604 -56.76171875 68.125 C-54.50526801 71.97720375 -52.7418066 74.50546226 -49 77 C-46.43810155 77.15474612 -46.43810155 77.15474612 -44 76 C-42.14083176 73.03292954 -42.14083176 73.03292954 -41 70 C-40.46375 70.721875 -39.9275 71.44375 -39.375 72.1875 C-36.11201952 76.05155583 -32.89204354 79.36931882 -28 81 C-22.97957107 81.37188362 -20.00266576 81.13722452 -16 78 C-10.1897293 71.52569836 -8.82016589 65.84000572 -8.86181641 57.18066406 C-9.09018327 53.57682511 -10.05301162 50.22135442 -11 46.75 C-14.0675666 34.47572547 -14.37768133 23.47274772 -7.92724609 12.11035156 C-5.42541184 7.97635372 -2.74998095 3.97219471 0 0 Z " fill="#06AC05" transform="translate(542,518)"/>
<path d="M0 0 C0.33 0 0.66 0 1 0 C0.21994105 34.88990957 -18.74652675 66.32455177 -42 91 C-42.71671875 91.78117188 -43.4334375 92.56234375 -44.171875 93.3671875 C-54.06989604 103.79169902 -66.87187683 111.910382 -81.49804688 112.34375 C-97.75518092 112.54680554 -108.8449027 106.74412712 -120.75 95.6875 C-131.05079539 84.77062833 -138.05454109 69.03919288 -138.125 53.9375 C-138.08375 52.638125 -138.0425 51.33875 -138 50 C-140.31 49.34 -142.62 48.68 -145 48 C-144 46 -144 46 -141.47143555 45.05444336 C-140.370979 44.73612549 -139.27052246 44.41780762 -138.13671875 44.08984375 C-136.93982422 43.73986328 -135.74292969 43.38988281 -134.50976562 43.02929688 C-133.24841797 42.66900391 -131.98707031 42.30871094 -130.6875 41.9375 C-129.43775391 41.57333984 -128.18800781 41.20917969 -126.90039062 40.83398438 C-117.16605791 38.00721358 -117.16605791 38.00721358 -113 37 C-113.6496875 38.07314453 -113.6496875 38.07314453 -114.3125 39.16796875 C-118.61051604 46.85863171 -120.59817888 53.2047242 -119 62 C-114.44433498 74.6145312 -106.79853244 82.34951406 -95.05859375 88.5546875 C-85.32225349 92.86841022 -74.95704656 93.83420391 -64.63671875 91.11328125 C-61.608742 89.93115284 -58.83921803 88.58047123 -56 87 C-54.63488281 86.25556641 -54.63488281 86.25556641 -53.2421875 85.49609375 C-26.02482202 69.40605575 -9.55848094 38.55122315 -1.91015625 8.79296875 C-1.20825704 5.86788662 -0.55175462 2.95624318 0 0 Z " fill="#057005" transform="translate(738,611)"/>
<path d="M0 0 C3.73102291 2.04840473 7.15093463 4.08433217 9 8 C8.81693976 10.7916687 8.51058779 13.27518 8 16 C7.80677272 17.33251538 7.61881965 18.66581215 7.4375 20 C7.293125 20.99 7.14875 21.98 7 23 C7.54269531 23.24234375 8.08539062 23.4846875 8.64453125 23.734375 C16.32296102 27.33147724 16.32296102 27.33147724 18 31 C18.61447856 35.22454007 18.47763281 37.24237555 16.1875 40.875 C12.20315365 43.5312309 9.34407296 43.48108403 4.65625 43.6953125 C0.98666893 44.11623503 -1.16189348 45.71567037 -4 48 C-8.61836433 50.82935583 -12.86870628 50.13214258 -18 49 C-21.25 47.1875 -21.25 47.1875 -24 45 C-27.01107258 42.9298876 -29.77667815 41.09826162 -33.125 39.625 C-36.78730491 37.55500157 -38.14962905 35.77191001 -40 32 C-40.6259044 28.96407119 -40.46277856 27.18803005 -40 24 C-36.32150715 20.27954715 -32.22422538 18.8232682 -27.3125 17.375 C-22.22499087 15.99656549 -22.22499087 15.99656549 -18 13 C-17.731875 11.88625 -17.46375 10.7725 -17.1875 9.625 C-15.55424491 4.63927393 -13.10524906 3.0796149 -8.5625 0.75 C-5.44726019 -0.1617775 -3.23524661 -0.39615265 0 0 Z " fill="#4C353F" transform="translate(535,957)"/>
<path d="M0 0 C4.45066566 2.41077723 8.11669894 4.99809693 10.55078125 9.50390625 C11.57053333 13.06048002 11.30181534 15.8998089 10.96875 19.58203125 C10.85830124 21.00232294 10.75164285 22.4229136 10.6484375 23.84375 C10.59526367 24.57126465 10.54208984 25.2987793 10.48730469 26.04833984 C10.2536602 29.66347172 10.14388332 33.27261137 10.09375 36.89453125 C10.05507813 38.80105469 10.05507813 38.80105469 10.015625 40.74609375 C10.37139073 44.56634004 11.42078454 46.98024823 13.34375 50.26953125 C9.40387221 48.99173305 7.43899161 47.87108582 5.34375 44.26953125 C5.08251953 41.43212891 5.08251953 41.43212891 5.2265625 38.18359375 C5.25878906 37.00539063 5.29101562 35.8271875 5.32421875 34.61328125 C5.42028204 32.14159884 5.5244007 29.67021587 5.63671875 27.19921875 C6.05382971 19.8998663 6.05382971 19.8998663 3.0546875 13.53125 C-3.2967824 8.2322571 -10.55878892 6.71108566 -18.65625 7.26953125 C-21.12083524 8.09586392 -23.31243773 9.12154157 -25.65625 10.26953125 C-25.63304687 10.96820312 -25.60984375 11.666875 -25.5859375 12.38671875 C-25.55886719 13.75183594 -25.55886719 13.75183594 -25.53125 15.14453125 C-25.50804687 16.04945313 -25.48484375 16.954375 -25.4609375 17.88671875 C-25.65625 20.26953125 -25.65625 20.26953125 -27.65625 22.26953125 C-30.46774388 22.33112892 -33.22212096 22.13598458 -36.02734375 21.94921875 C-38.76397189 22.01237085 -38.76397189 22.01237085 -40.484375 24.05859375 C-42.47732029 27.8186172 -42.19260716 31.51418055 -40.96875 35.51953125 C-37.90887978 39.5993582 -33.0824195 40.94748153 -28.42578125 42.5234375 C-26.65625 43.26953125 -26.65625 43.26953125 -24.65625 45.26953125 C-24.3125 48.1328125 -24.3125 48.1328125 -24.15625 51.58203125 C-23.95751924 55.93920327 -23.50339166 59.29966632 -21.65625 63.26953125 C-17.81049397 63.91049059 -14.4220898 64.28582447 -10.53125 64.01953125 C-6.65625 64.26953125 -6.65625 64.26953125 -3.96875 66.58203125 C-2.8240625 67.91234375 -2.8240625 67.91234375 -1.65625 69.26953125 C2.13437672 72.32309166 5.31870667 72.78328681 10.0546875 72.6328125 C13.83651326 72.03262514 16.22946316 70.47548443 19.34375 68.26953125 C20.50672973 65.94357179 20.50975691 64.48229894 20.53125 61.89453125 C20.54542969 61.12367188 20.55960938 60.3528125 20.57421875 59.55859375 C20.32176607 57.05118237 19.59568467 55.43691223 18.34375 53.26953125 C24.26159383 54.53764064 26.92968084 57.55433475 30.34375 62.26953125 C31.95430776 65.49064677 31.79992429 68.77653953 31.34375 72.26953125 C28.73515493 77.69540899 25.5895993 79.74028248 20.34375 82.26953125 C14.76128826 83.94762596 8.81440121 84.38858177 3.53125 81.64453125 C0.18210875 79.14909267 -1.5245864 76.82230391 -3.65625 73.26953125 C-7.48577367 71.35476942 -12.75173536 72.41832663 -17.00390625 72.66015625 C-19.31833331 72.72056544 -21.38312181 72.7154184 -23.65625 72.26953125 C-27.3324622 68.76510467 -28.62824157 66.32970206 -28.76171875 61.27734375 C-28.80789754 58.82384456 -28.84358741 56.37581886 -28.82226562 53.921875 C-28.88551044 51.57223428 -29.02695699 49.53560194 -29.65625 47.26953125 C-33.26995039 43.98386809 -37.21832601 42.56164007 -41.78125 40.95703125 C-46.23629016 39.13300736 -49.22946159 37.82586954 -51.171875 33.296875 C-52.43626795 28.0047787 -52.80880165 23.36372948 -50.140625 18.515625 C-46.77455103 15.47239775 -43.73958192 15.49148354 -39.40625 15.45703125 C-38.28863281 15.41932617 -38.28863281 15.41932617 -37.1484375 15.38085938 C-35.31827207 15.32220023 -33.48720547 15.29295045 -31.65625 15.26953125 C-31.70265625 14.3775 -31.7490625 13.48546875 -31.796875 12.56640625 C-31.85101562 10.81070313 -31.85101562 10.81070313 -31.90625 9.01953125 C-31.95265625 7.859375 -31.9990625 6.69921875 -32.046875 5.50390625 C-31.65625 2.26953125 -31.65625 2.26953125 -29.828125 -0.08984375 C-22.33934774 -5.74683377 -8.06339408 -3.43665742 0 0 Z " fill="#715C65" transform="translate(578.65625,908.73046875)"/>
<path d="M0 0 C0.76183594 -0.00515625 1.52367187 -0.0103125 2.30859375 -0.015625 C4.8130057 0.27952234 6.41947854 0.93804133 8.5625 2.25 C10.6308099 5.24904936 10.76177643 7.66302423 10.5625 11.25 C11.59375 11.3325 12.625 11.415 13.6875 11.5 C18.51018657 12.43342321 21.92424646 14.09048397 24.9375 18.0625 C26.59792162 23.87397567 25.58741482 28.30414523 22.7734375 33.453125 C20.34812141 37.05198113 17.62151272 38.89699576 13.5625 40.25 C9.39222047 40.9738355 5.9667003 41.20615778 2.37109375 38.7578125 C1.00085284 37.50457508 -0.34980434 36.22957793 -1.6796875 34.93359375 C-4.49138868 32.24060884 -7.07956669 31.47997258 -10.859375 30.83984375 C-11.75140625 30.68644531 -12.6434375 30.53304687 -13.5625 30.375 C-14.41070312 30.25382813 -15.25890625 30.13265625 -16.1328125 30.0078125 C-19.10046141 29.0320093 -19.94701586 27.96737783 -21.4375 25.25 C-21.80078125 22.99609375 -21.80078125 22.99609375 -21.75 20.6875 C-21.74419922 19.54087891 -21.74419922 19.54087891 -21.73828125 18.37109375 C-21.4375 16.25 -21.4375 16.25 -19.4375 13.25 C-16.6171875 12.95703125 -16.6171875 12.95703125 -13.3125 13.0625 C-11.66894531 13.10310547 -11.66894531 13.10310547 -9.9921875 13.14453125 C-9.14914062 13.17933594 -8.30609375 13.21414063 -7.4375 13.25 C-7.47230469 12.47914063 -7.50710938 11.70828125 -7.54296875 10.9140625 C-7.57003906 9.91117188 -7.59710938 8.90828125 -7.625 7.875 C-7.65980469 6.87726562 -7.69460938 5.87953125 -7.73046875 4.8515625 C-7.58544922 3.56378906 -7.58544922 3.56378906 -7.4375 2.25 C-4.32763793 0.17675862 -3.54641613 -0.02392186 0 0 Z " fill="#4C353F" transform="translate(468.4375,886.75)"/>
<path d="M0 0 C3.4790679 2.60930093 4.00146733 4.78277483 5.01171875 8.90625 C5.87377863 11.4240122 6.65470571 12.43545432 8.75 14.0625 C11.14068734 15.16886395 11.14068734 15.16886395 13.75 16.0625 C17.09045553 17.25551983 19.58579187 18.17223495 21.75 21.0625 C22.26782249 26.41333237 22.18887357 29.69777586 18.75 34.0625 C15.42499962 35.72500019 12.32976975 35.66943114 8.75 35.0625 C3.71177605 33.00288969 -1.15351019 30.54606255 -5.6015625 27.3984375 C-9.15761024 25.60467891 -12.53653074 25.57413607 -16.4375 25.5 C-23.99418339 25.31831661 -23.99418339 25.31831661 -26.25 23.0625 C-26.97484302 17.98017043 -27.0390746 12.75197631 -24.625 8.125 C-18.50254599 0.23025667 -9.6169478 -2.77411956 0 0 Z " fill="#4C353F" transform="translate(408.25,944.9375)"/>
<path d="M0 0 C3.36619025 2.91736488 4.83204282 5.47658564 6.8125 9.4375 C11.29133696 8.99046014 11.29133696 8.99046014 14.8125 6.4375 C20.01787712 5.70602544 24.51098637 5.79857513 29.25 8.125 C35.58908011 13.84563327 35.58908011 13.84563327 36.3125 19 C35.8125 22.4375 35.8125 22.4375 34.3125 24.8125 C30.7974369 27.09729101 27.9779919 27.15980054 23.8125 27.4375 C23.4 26.695 22.9875 25.9525 22.5625 25.1875 C20.87504382 22.53578315 19.10377911 20.57075986 16.8125 18.4375 C16.29042969 18.7984375 15.76835938 19.159375 15.23046875 19.53125 C9.0805209 23.40862518 4.033527 24.58775209 -3.1875 23.4375 C-9.63744772 21.40975724 -13.23739573 17.96626011 -16.5 12.0625 C-17.42528858 8.52957996 -17.03766375 5.96894943 -16.1875 2.4375 C-12.27993863 -2.89099278 -5.51153614 -2.7017334 0 0 Z " fill="#715D66" transform="translate(635.1875,984.5625)"/>
<path d="M0 0 C1.14984375 0.02449219 2.2996875 0.04898438 3.484375 0.07421875 C6.25 0.3125 6.25 0.3125 7.25 1.3125 C7.16036938 3.00391656 7.00422324 4.69209602 6.8125 6.375 C6.71066406 7.29410156 6.60882813 8.21320312 6.50390625 9.16015625 C6.42011719 9.87042969 6.33632813 10.58070313 6.25 11.3125 C7.075 11.1475 7.9 10.9825 8.75 10.8125 C12.78504654 10.23606478 16.17592186 9.97855917 20.25 10.3125 C22.25 11.875 22.25 11.875 23.25 14.3125 C23.82675875 19.50332878 23.22358619 22.99600391 20.25 27.3125 C14.73603285 32.07456254 9.16558363 31.90034573 2.05859375 31.703125 C-4.30984112 31.04995219 -10.05161867 29.52984561 -15.05078125 25.421875 C-16.75 23.3125 -16.75 23.3125 -16.75 19.3125 C-13.75 17.0625 -13.75 17.0625 -10.75 15.3125 C-10.94529297 14.19101562 -10.94529297 14.19101562 -11.14453125 13.046875 C-11.28246094 12.06203125 -11.42039062 11.0771875 -11.5625 10.0625 C-11.78873047 8.60070312 -11.78873047 8.60070312 -12.01953125 7.109375 C-11.75 4.3125 -11.75 4.3125 -9.68359375 1.97265625 C-6.16579169 -0.01811056 -4.01452578 -0.13169824 0 0 Z " fill="#725E67" transform="translate(398.75,978.6875)"/>
<path d="M0 0 C0.05553449 1.33282775 0.09346189 2.66638865 0.125 4 C0.14820313 4.7425 0.17140625 5.485 0.1953125 6.25 C0 9 0 9 -0.8972168 12.47412109 C-2.22093837 17.65141826 -3.02476519 22.88657884 -3.83984375 28.1640625 C-4.00746719 29.23256439 -4.17509064 30.30106628 -4.34779358 31.40194702 C-4.7016186 33.66255001 -5.05366962 35.92343129 -5.40405273 38.18457031 C-5.92842201 41.56645218 -6.45883418 44.94734163 -6.99023438 48.328125 C-7.33643229 50.54419359 -7.68213757 52.7603392 -8.02734375 54.9765625 C-8.19793304 56.06840851 -8.36852234 57.16025452 -8.54428101 58.28518677 C-9.36329285 63.59683493 -10.13029291 68.90673008 -10.78173828 74.24169922 C-10.9048085 75.22971527 -11.02787872 76.21773132 -11.15467834 77.23568726 C-11.37867155 79.06883585 -11.59101755 80.90346716 -11.78855896 82.73965454 C-12.69487646 90.1355113 -15.34377736 96.09207167 -19.0625 102.4921875 C-21.20117172 106.17569028 -22.58850895 109.98607232 -24 114 C-24.33 114 -24.66 114 -25 114 C-25.5058906 98.48602149 -23.78197046 83.71883957 -20.48828125 68.55712891 C-19.92668968 65.61607388 -19.56985626 62.67430463 -19.19921875 59.703125 C-18.06505111 51.65016771 -16.04944886 43.95034316 -13.875 36.125 C-13.49792742 34.74369968 -13.12162171 33.36218979 -12.74609375 31.98046875 C-11.83950985 28.65119575 -10.9227459 25.32483493 -10 22 C-9.34 22 -8.68 22 -8 22 C-7.87882812 21.38253906 -7.75765625 20.76507812 -7.6328125 20.12890625 C-7.28197893 18.35584737 -6.92619416 16.58376357 -6.56640625 14.8125 C-6.20613751 13.02357935 -5.85835344 11.23206492 -5.52734375 9.4375 C-5.37394531 8.65375 -5.22054688 7.87 -5.0625 7.0625 C-4.92972656 6.35222656 -4.79695313 5.64195312 -4.66015625 4.91015625 C-3.93579781 2.81423152 -2.53467104 0 0 0 Z " fill="#067105" transform="translate(499,608)"/>
<path d="M0 0 C3.3477509 1.06843114 4.31202119 1.86715113 5.9375 4.9375 C5.9375 5.9275 5.9375 6.9175 5.9375 7.9375 C6.845 7.999375 7.7525 8.06125 8.6875 8.125 C11.9375 8.9375 11.9375 8.9375 14.375 11.0625 C16.46114592 14.9010085 16.12626965 16.77680623 14.9375 20.9375 C12.7570394 24.32097335 10.8018264 26.6493912 6.9375 27.9375 C4.625 28.4375 4.625 28.4375 1.9375 27.9375 C0.79692371 27.00099741 -0.30383939 26.01516813 -1.375 25 C-4.04453502 22.49402511 -5.64857062 21.56124383 -9.3125 21.3125 C-13.0625 20.9375 -13.0625 20.9375 -15.125 19.3125 C-16.46294569 15.92303757 -15.85432159 13.43471204 -15.0625 9.9375 C-14.0625 8.9375 -14.0625 8.9375 -12.21484375 8.83984375 C-10.1640625 8.87239583 -8.11328125 8.90494792 -6.0625 8.9375 C-6.3925 6.9575 -6.7225 4.9775 -7.0625 2.9375 C-4.573866 0.54458269 -3.51817557 -0.0717995 0 0 Z " fill="#735E67" transform="translate(470.0625,893.0625)"/>
<path d="M0 0 C3.28578993 2.66786526 4.56505361 6.16428487 6.0625 10 C6.45719482 11.00812744 6.45719482 11.00812744 6.85986328 12.03662109 C11.81858324 25.11754357 13.34290145 39.77379867 8 53 C4.11447448 60.55317111 -1.998974 67.68596556 -10 71 C-13.71816101 71.19569268 -16.46029282 71.17990239 -20 70 C-21.1875 66.4375 -21.1875 66.4375 -22 63 C-21.2265625 62.91363281 -20.453125 62.82726562 -19.65625 62.73828125 C-11.93729264 61.69698626 -5.58624267 60.36586064 -0.47265625 54.140625 C4.6132078 46.53394138 5.38794735 39.20042936 5.375 30.25 C5.37556396 29.27224609 5.37612793 28.29449219 5.37670898 27.28710938 C5.26734419 20.12042871 4.01621255 14.51255689 1 8 C0.41560233 5.22411107 0 2.81621549 0 0 Z " fill="#6ACF12" transform="translate(461,656)"/>
<path d="M0 0 C0.83337891 1.04994141 0.83337891 1.04994141 1.68359375 2.12109375 C10.5382675 13.12597495 19.91764096 23.64265909 29.67578125 33.8515625 C37.34155414 41.89403899 44.47878674 49.99507555 51 59 C51.71414063 59.97582031 52.42828125 60.95164062 53.1640625 61.95703125 C58 68.69073705 58 68.69073705 58 71 C58.99 71.495 58.99 71.495 60 72 C58.20703125 72.68359375 58.20703125 72.68359375 56 73 C54.32421875 71.84765625 54.32421875 71.84765625 52.6875 70.0625 C52.08035156 69.41023437 51.47320313 68.75796875 50.84765625 68.0859375 C50.23792969 67.39757812 49.62820313 66.70921875 49 66 C48.44183594 65.37351562 47.88367188 64.74703125 47.30859375 64.1015625 C46.15715487 62.79250205 45.01293426 61.47706655 43.875 60.15625 C41.82640906 57.80037042 39.72796998 55.4949254 37.625 53.1875 C33.75453756 48.8993148 30.08592583 44.48150098 26.45703125 39.98828125 C24.16427353 37.19979214 21.81891235 34.4700688 19.44873047 31.74780273 C0 9.37542662 0 9.37542662 0 0 Z " fill="#6AD013" transform="translate(484,830)"/>
<path d="M0 0 C1.77712373 2.66568559 3.13352544 5.26705089 4.5625 8.125 C11.22701134 20.23938751 21.88721439 27.55081753 35.0625 31.375 C40.68587921 32.26759987 46.31851854 32.67088979 52 33 C52 33.33 52 33.66 52 34 C50.94941406 34.19335938 49.89882813 34.38671875 48.81640625 34.5859375 C47.39837653 34.84862945 45.98041201 35.11167348 44.5625 35.375 C43.8298291 35.51075439 43.0971582 35.64650879 42.34228516 35.78637695 C38.49692994 36.5061573 34.68072218 37.27700881 30.875 38.1875 C22.60791162 39.92092176 22.60791162 39.92092176 18.87890625 37.78515625 C9.62418841 31.15234835 3.76609796 22.00359848 1 11 C0.46193255 7.33384551 0.14320053 3.70173375 0 0 Z " fill="#097309" transform="translate(564,616)"/>
<path d="M0 0 C-0.75023437 0.4846875 -1.50046875 0.969375 -2.2734375 1.46875 C-9.15818862 5.97765502 -15.70551898 10.68072026 -22 16 C-23.34384766 17.10601563 -23.34384766 17.10601563 -24.71484375 18.234375 C-37.32074467 29.05458729 -44.47292187 41.94031695 -51 57 C-51.33 57 -51.66 57 -52 57 C-51.52379159 50.97026247 -50.23522335 46.52537434 -47.4375 41.1875 C-46.90394897 40.14928101 -46.90394897 40.14928101 -46.35961914 39.09008789 C-40.36233574 27.70910454 -15.96170353 -5.5211214 0 0 Z " fill="#68D015" transform="translate(534,684)"/>
<path d="M0 0 C0 0.66 0 1.32 0 2 C-0.99 2 -1.98 2 -3 2 C-3 2.66 -3 3.32 -3 4 C-4.37303741 4.87960209 -5.75415113 5.74831848 -7.16625977 6.5637207 C-15.91030129 11.62434492 -22.55485695 18.16102641 -29.50390625 25.42578125 C-32.16799697 28.20779663 -34.90592154 30.68983393 -38 33 C-38 29.37 -38 25.74 -38 22 C-37.34 23.32 -36.68 24.64 -36 26 C-35.58492188 25.55011719 -35.16984375 25.10023438 -34.7421875 24.63671875 C-11.14228457 0 -11.14228457 0 0 0 Z " fill="#5CCA30" transform="translate(529,670)"/>
<path d="M0 0 C0.33 0 0.66 0 1 0 C0.65410469 15.47095408 -3.93438005 30.85549051 -10 45 C-11.625 43.375 -11.625 43.375 -13 41 C-12.3984375 38.26953125 -12.3984375 38.26953125 -11 35 C-10.46910213 33.69231828 -9.94060678 32.38365952 -9.4140625 31.07421875 C-9.12474854 30.36765137 -8.83543457 29.66108398 -8.53735352 28.93310547 C-4.68403171 19.44879881 -2.04220952 10.02077964 0 0 Z " fill="#1F801A" transform="translate(738,611)"/>
<path d="M0 0 C3.34672483 2.6954161 4.60135405 6.30182 6.125 10.1875 C6.38925781 10.82236328 6.65351563 11.45722656 6.92578125 12.11132812 C8.77422467 16.75120259 9.54638603 21.02684194 10 26 C8.68 25.67 7.36 25.34 6 25 C5.81824219 24.13117187 5.63648438 23.26234375 5.44921875 22.3671875 C4.15737674 16.44458875 2.76992075 11.40794051 0 6 C-0.1875 2.625 -0.1875 2.625 0 0 Z " fill="#71D220" transform="translate(461,656)"/>
<path d="M0 0 C0.33 0 0.66 0 1 0 C1.17388013 5.05425069 0.62336649 9.29600362 -0.6796875 14.17578125 C-0.93892502 15.1526313 -0.93892502 15.1526313 -1.20339966 16.1492157 C-1.56741479 17.51247622 -1.93570471 18.87460197 -2.30810547 20.2355957 C-2.87742623 22.32138886 -3.42981044 24.4111647 -3.98046875 26.50195312 C-4.337549 27.83099627 -4.69558787 29.15978231 -5.0546875 30.48828125 C-5.37937012 31.69009033 -5.70405273 32.89189941 -6.03857422 34.13012695 C-7 37 -7 37 -9 39 C-8.40861185 30.52343647 -6.18276858 22.58924089 -3.9375 14.4375 C-3.55602905 13.03336913 -3.17516476 11.6290733 -2.79492188 10.22460938 C-1.87026673 6.81447626 -0.93742538 3.4066478 0 0 Z " fill="#71C835" transform="translate(489,630)"/>
<path d="M0 0 C2 2 2 2 2.1953125 5.4765625 C2.18201493 6.85950968 2.15816232 8.24238654 2.125 9.625 C2.11597656 10.33140625 2.10695313 11.0378125 2.09765625 11.765625 C2.07407603 13.51056098 2.03820461 15.25532295 2 17 C0.02 17.99 0.02 17.99 -2 19 C-2 13.06 -2 7.12 -2 1 C-1.34 0.67 -0.68 0.34 0 0 Z " fill="#59CD03" transform="translate(469,680)"/>
<path d="M0 0 C1.83046139 5.08461499 0.57274455 9.75974022 -1.62890625 14.52734375 C-2.26699219 15.65269531 -2.90507812 16.77804687 -3.5625 17.9375 C-4.20316406 19.08089844 -4.84382813 20.22429688 -5.50390625 21.40234375 C-5.99761719 22.25957031 -6.49132812 23.11679687 -7 24 C-8.11220869 20.66337394 -7.63845932 19.42650398 -6.61328125 16.18359375 C-5.40076342 11.86641243 -4.75078276 7.41683902 -4 3 C-3.34 3.33 -2.68 3.66 -2 4 C-1.34 2.68 -0.68 1.36 0 0 Z " fill="#5DC319" transform="translate(477,715)"/>
<path d="M0 0 C0 4.09812961 -1.92968848 6.88824787 -3.875 10.375 C-6.16305789 14.51452523 -8.36622803 18.54582169 -10 23 C-10.33 23 -10.66 23 -11 23 C-10.69932755 15.33285248 -7.96138935 8.54974445 -4 2 C-1.80078125 0.6171875 -1.80078125 0.6171875 0 0 Z " fill="#73D326" transform="translate(493,718)"/>
<path d="M0 0 C0.33 0 0.66 0 1 0 C1.11097627 6.76261649 0.69258682 13.33785639 0 20.0625 C-0.09539062 21.02349609 -0.19078125 21.98449219 -0.2890625 22.97460938 C-0.5221192 25.31682923 -0.75916349 27.65856955 -1 30 C-1.99 29.34 -2.98 28.68 -4 28 C-2.78387098 18.64615656 -1.47688107 9.31691991 0 0 Z " fill="#0A9F0B" transform="translate(497,619)"/>
<path d="M0 0 C0 0.66 0 1.32 0 2 C-0.99 2 -1.98 2 -3 2 C-3 2.66 -3 3.32 -3 4 C-5.17875667 5.59974462 -7.34265568 7.06262823 -9.625 8.5 C-10.24246094 8.90347656 -10.85992188 9.30695312 -11.49609375 9.72265625 C-15.22175188 12.09923396 -18.70985898 13.78556008 -23 15 C-18.45322906 9.82608824 -12.85223393 6.54833724 -7 3 C-6.1028125 2.43539062 -5.205625 1.87078125 -4.28125 1.2890625 C-2 0 -2 0 0 0 Z " fill="#78D431" transform="translate(529,670)"/>
<path d="M0 0 C0.80244141 0.34417969 0.80244141 0.34417969 1.62109375 0.6953125 C0.81285156 1.22640625 0.00460937 1.7575 -0.828125 2.3046875 C-2.43107422 3.36429688 -2.43107422 3.36429688 -4.06640625 4.4453125 C-5.12214844 5.14140625 -6.17789063 5.8375 -7.265625 6.5546875 C-10.08185253 8.49106478 -12.74219475 10.52332751 -15.37890625 12.6953125 C-16.03890625 12.3653125 -16.69890625 12.0353125 -17.37890625 11.6953125 C-15.15121032 7.23992065 -12.73071183 5.29103735 -8.44140625 2.8203125 C-7.40113281 2.20414063 -6.36085938 1.58796875 -5.2890625 0.953125 C-2.37890625 -0.3046875 -2.37890625 -0.3046875 0 0 Z " fill="#74D227" transform="translate(532.37890625,683.3046875)"/>
<path d="M0 0 C0.33 0 0.66 0 1 0 C1.56131481 6.45512034 -0.36536213 11.15439723 -3 17 C-4.5390625 15.1796875 -4.5390625 15.1796875 -6 13 C-5.06201553 8.68527143 -3.18370032 3.18370032 0 0 Z " fill="#137712" transform="translate(731,639)"/>
<path d="M0 0 C0.53625 0.680625 1.0725 1.36125 1.625 2.0625 C4.35076561 5.43384168 7.16483178 8.72065543 10 12 C9.67 12.66 9.34 13.32 9 14 C4.29061755 11.27902347 1.92414823 9.13106194 0 4 C0 2.68 0 1.36 0 0 Z " fill="#74D229" transform="translate(484,830)"/>
<path d="M0 0 C-2.52475462 2.52475462 -4.73497997 3.04307871 -8.125 4.125 C-9.22070312 4.47820313 -10.31640625 4.83140625 -11.4453125 5.1953125 C-12.28835938 5.46085938 -13.13140625 5.72640625 -14 6 C-14 5.01 -14 4.02 -14 3 C-14.66 2.67 -15.32 2.34 -16 2 C-10.54538831 0.61470179 -5.63281599 -0.2396943 0 0 Z " fill="#74CE05" transform="translate(671,584)"/>
<path d="M0 0 C0.66 0.33 1.32 0.66 2 1 C-3.28 6.28 -8.56 11.56 -14 17 C-14 12.08113186 -10.31173311 9.3948461 -7 6 C-4.72300284 3.91201998 -2.39497582 1.9550823 0 0 Z " fill="#85D73A" transform="translate(316,628)"/>
<path d="M0 0 C0.66 0.33 1.32 0.66 2 1 C0.92492371 2.29854721 -0.16043736 3.58858361 -1.25 4.875 C-1.85328125 5.59429688 -2.4565625 6.31359375 -3.078125 7.0546875 C-5.01258074 9.01273416 -6.49601175 9.92270273 -9 11 C-10.11375 11.556875 -10.11375 11.556875 -11.25 12.125 C-11.8275 12.41375 -12.405 12.7025 -13 13 C-9.0580583 8.11950075 -4.88049925 3.9419417 0 0 Z " fill="#7FD531" transform="translate(480,527)"/>
<path d="M0 0 C0.33 0.66 0.66 1.32 1 2 C0.33730939 3.66825159 -0.33005782 5.33464728 -1 7 C-1.2759478 8.92903132 -1.48449903 10.8689032 -1.625 12.8125 C-1.69976562 13.78832031 -1.77453125 14.76414062 -1.8515625 15.76953125 C-1.90054687 16.50558594 -1.94953125 17.24164062 -2 18 C-3.50390625 16.69921875 -3.50390625 16.69921875 -5 15 C-4.88719668 9.24703063 -2.74142509 4.90906354 0 0 Z " fill="#16B103" transform="translate(485,561)"/>
<path d="M0 0 C-2.50248865 1.66832577 -4.41149187 2.62381674 -7.1875 3.625 C-7.90292969 3.88539063 -8.61835937 4.14578125 -9.35546875 4.4140625 C-9.89816406 4.60742188 -10.44085937 4.80078125 -11 5 C-11 4.01 -11 3.02 -11 2 C-12.32 1.67 -13.64 1.34 -15 1 C-10.03926578 -0.32286246 -5.08888488 -0.08893197 0 0 Z " fill="#71CD04" transform="translate(714,586)"/>
<path d="M0 0 C-2.39060851 1.59373901 -4.30828179 2.65297076 -6.9375 3.6875 C-7.60652344 3.95949219 -8.27554688 4.23148438 -8.96484375 4.51171875 C-11.32830338 5.0787676 -12.7192799 4.76024003 -15 4 C-13.35 3.67 -11.7 3.34 -10 3 C-10 2.34 -10 1.68 -10 1 C-3.71428571 -1.42857143 -3.71428571 -1.42857143 0 0 Z " fill="#42BF06" transform="translate(626,647)"/>
<path d="M0 0 C0.66 0.33 1.32 0.66 2 1 C-1.3 4.3 -4.6 7.6 -8 11 C-8 6.67750434 -5.85084926 5.11604454 -3 2 C-2.01 1.34 -1.02 0.68 0 0 Z " fill="#333637" transform="translate(437,895)"/>
<path d="M0 0 C1 2 1 2 0.328125 4.09375 C-0.02765625 4.8878125 -0.3834375 5.681875 -0.75 6.5 C-1.09546875 7.2940625 -1.4409375 8.088125 -1.796875 8.90625 C-3 11 -3 11 -6 13 C-4.58707905 8.1725201 -2.57025846 4.2837641 0 0 Z " fill="#258220" transform="translate(471,729)"/>
<path d="M0 0 C-4.455 2.97 -4.455 2.97 -9 6 C-9.66 5.67 -10.32 5.34 -11 5 C-4.92783505 -1.23195876 -4.92783505 -1.23195876 0 0 Z " fill="#7AD431" transform="translate(534,684)"/>
<path d="M0 0 C1.03115279 3.26913624 0.9638984 5.86041348 0.5625 9.25 C0.46066406 10.14203125 0.35882813 11.0340625 0.25390625 11.953125 C0.12822266 12.96632813 0.12822266 12.96632813 0 14 C-0.99 13.34 -1.98 12.68 -3 12 C-2.68950274 10.56206608 -2.3765224 9.1246682 -2.0625 7.6875 C-1.88847656 6.88699219 -1.71445312 6.08648438 -1.53515625 5.26171875 C-1 3 -1 3 0 0 Z " fill="#15AC15" transform="translate(496,635)"/>
<path d="M0 0 C3.0916909 2.52956528 3.90931332 5.22454612 5 9 C3.68 8.67 2.36 8.34 1 8 C0 2.25 0 2.25 0 0 Z " fill="#82D63A" transform="translate(461,656)"/>
<path d="M0 0 C0.66 0.33 1.32 0.66 2 1 C-0.64 3.64 -3.28 6.28 -6 9 C-6 6 -6 6 -3.5625 3.375 C-2.716875 2.59125 -1.87125 1.8075 -1 1 C-0.67 0.67 -0.34 0.34 0 0 Z " fill="#343637" transform="translate(348,974)"/>
<path d="M0 0 C0.99 0.33 1.98 0.66 3 1 C1.68 2.65 0.36 4.3 -1 6 C-2.32 5.34 -3.64 4.68 -5 4 C-2.6875 1.9375 -2.6875 1.9375 0 0 Z " fill="#64CF0C" transform="translate(515,692)"/>
<path d="M0 0 C0 3 0 3 -1 5 C-0.34 5.33 0.32 5.66 1 6 C-0.98 6.66 -2.96 7.32 -5 8 C-3.8141763 4.62496331 -2.72426311 2.35277269 0 0 Z " fill="#CCD929" transform="translate(693,598)"/>
<path d="M0 0 C-0.99 0.33 -1.98 0.66 -3 1 C-3 1.66 -3 2.32 -3 3 C-5.31 2.67 -7.62 2.34 -10 2 C-6.5980513 -0.09350689 -3.94727588 -0.17942163 0 0 Z " fill="#11A806" transform="translate(614,650)"/>
<path d="M0 0 C0.66 0 1.32 0 2 0 C1.01 2.97 0.02 5.94 -1 9 C-1.33 9 -1.66 9 -2 9 C-1.125 1.125 -1.125 1.125 0 0 Z " fill="#7DD537" transform="translate(484,732)"/>
<path d="M0 0 C0 3 0 3 -2.5 5.6875 C-3.325 6.450625 -4.15 7.21375 -5 8 C-5.3125 5.6875 -5.3125 5.6875 -5 3 C-2.5 1.1875 -2.5 1.1875 0 0 Z " fill="#54CA09" transform="translate(496,695)"/>
</svg>
