<?xml version="1.0" encoding="UTF-8"?>
<svg version="1.1" xmlns="http://www.w3.org/2000/svg" width="1024" height="1024">
<path d="M0 0 C337.92 0 675.84 0 1024 0 C1024 337.92 1024 675.84 1024 1024 C686.08 1024 348.16 1024 0 1024 C0 686.08 0 348.16 0 0 Z " fill="#FEFEFE" transform="translate(0,0)"/>
<path d="M0 0 C1.63905688 1.34794081 3.25552775 2.72437753 4.8359375 4.140625 C7.4775977 6.10829998 10.000718 6.83357226 13.1171875 7.83984375 C17.1171875 12.05037007 17.1171875 12.05037007 17.1171875 14.83984375 C17.69726562 15.11441406 18.27734375 15.38898437 18.875 15.671875 C21.06742862 16.81392406 22.97844481 18.09735137 24.9921875 19.52734375 C28.86240936 22.16062485 32.82869476 24.20531292 37.0546875 26.21484375 C47.82531163 31.42242751 57.37908298 38.5666629 61.9296875 49.96484375 C66.5885292 64.05098867 63.51819227 79.97013326 57.49609375 93.21875 C53.42976885 100.94822311 48.40757243 106.65468476 40.2421875 110.02734375 C36.89963649 110.89640701 33.54843249 111.6685473 30.16796875 112.375 C27.93566258 112.8455246 27.93566258 112.8455246 25.1171875 113.83984375 C13.91611969 115.09354125 4.77025277 110.66800949 -3.8828125 103.83984375 C-14.13344385 94.83380845 -25.75810229 80.8620038 -27.1953125 66.77734375 C-26.45056971 57.39358458 -21.7311875 50.9441878 -16.078125 43.66796875 C-10.98885501 37.19529155 -10.98885501 37.19529155 -8.1953125 29.58984375 C-8.62012644 26.5174215 -8.62012644 26.5174215 -11.8828125 25.02734375 C-12.8728125 24.30546875 -13.8628125 23.58359375 -14.8828125 22.83984375 C-14.96484375 20.8046875 -14.96484375 20.8046875 -14.6953125 18.46484375 C-14.41284781 16.10780873 -14.41284781 16.10780873 -14.8828125 13.83984375 C-21.4514595 7.24382738 -28.9078778 6.49109798 -37.76513672 6.45483398 C-47.67512255 6.6375475 -55.96926071 9.9030327 -63.14453125 16.85546875 C-77.66065307 33.42668198 -78.01129338 57.01368305 -76.8828125 77.83984375 C-75.15617119 94.36225691 -69.88663933 111.06354806 -61.984375 125.65234375 C-60.8828125 127.83984375 -60.8828125 127.83984375 -60.8828125 129.83984375 C-56.71580652 128.87250308 -52.73972233 127.84550901 -48.7578125 126.27734375 C-40.24315538 123.0100916 -30.66578545 122.46347502 -22.07421875 125.765625 C-13.08148804 130.17382633 -6.36080213 138.26310697 0.58203125 145.28515625 C3.25454378 147.98234246 5.93963764 150.65160081 8.7421875 153.21484375 C9.29132813 153.71757813 9.84046875 154.2203125 10.40625 154.73828125 C12.71999075 156.22794995 14.36005974 156.72584306 17.1171875 156.83984375 C19.3316922 155.34751154 19.3316922 155.34751154 21.3046875 153.15234375 C27.71212256 147.12492131 33.68922374 144.68702822 42.4921875 144.27734375 C52.25833268 144.62243722 60.37880522 148.35650026 67.46484375 155.0078125 C69.05132156 156.76681508 70.24864019 158.51787457 71.4921875 160.52734375 C74.08046061 164.45800935 77.37992001 165.43610382 81.69921875 166.9609375 C92.09280139 170.73889565 98.42921043 179.51527072 102.98828125 189.10546875 C105.10812175 194.24003051 105.20901032 198.33047451 105.1171875 203.83984375 C105.72304688 203.7934375 106.32890625 203.74703125 106.953125 203.69921875 C114.59916779 203.36985075 120.96081028 204.70070608 127.16015625 209.3828125 C133.33804433 215.13918157 136.78724905 222.05573625 137.3671875 230.46484375 C137.32899494 235.52535742 135.75105817 240.09383846 134.1171875 244.83984375 C133.4571875 244.83984375 132.7971875 244.83984375 132.1171875 244.83984375 C131.7871875 246.15984375 131.4571875 247.47984375 131.1171875 248.83984375 C83.09857806 249.11444722 35.08005166 249.3259273 -12.93918803 249.4526277 C-18.60692091 249.46763637 -24.27465224 249.48316822 -29.94238281 249.49902344 C-31.07073671 249.50217116 -32.19909061 249.50531889 -33.36163706 249.508562 C-51.63734315 249.560793 -69.91259678 249.65541572 -88.18803436 249.7656773 C-106.9372105 249.87785453 -125.68614952 249.94454023 -144.43564749 249.96890569 C-156.00750828 249.98538023 -167.57809025 250.03742899 -179.14955741 250.13484135 C-187.08217485 250.19822318 -195.01413023 250.21745688 -202.94698256 250.20186028 C-207.52595348 250.19416517 -212.10268869 250.2060404 -216.68126297 250.27030945 C-220.87469411 250.32874259 -225.06438918 250.33165163 -229.25799292 250.29063049 C-230.77367834 250.28556221 -232.28959743 250.3007754 -233.80482322 250.33844194 C-238.37496045 250.44543205 -242.50326359 250.33353971 -246.8828125 248.83984375 C-253.38330329 242.54789415 -257.08750622 233.80408166 -257.8828125 224.83984375 C-257.61455735 215.95647119 -255.6783776 208.64745801 -249.328125 202.28125 C-245.17211912 198.63182195 -241.94999488 197.77735642 -236.5703125 197.46484375 C-231.25052054 197.00805844 -227.01566121 196.21554157 -223.3046875 192.08203125 C-221.64110306 189.45868656 -221.20074047 187.32387162 -220.6328125 184.27734375 C-218.32039807 174.41345095 -213.05211069 166.7665895 -204.8828125 160.83984375 C-204.2228125 160.83984375 -203.5628125 160.83984375 -202.8828125 160.83984375 C-202.8828125 160.17984375 -202.8828125 159.51984375 -202.8828125 158.83984375 C-197.3242021 156.82928254 -192.66644887 156.32508184 -186.8828125 157.83984375 C-184.864737 159.14565731 -182.86227842 160.47621167 -180.8828125 161.83984375 C-177.63103398 162.17578508 -177.63103398 162.17578508 -174.8828125 161.83984375 C-173.36495007 159.08514734 -172.58618472 156.83528715 -172.2421875 153.71484375 C-170.77605384 141.94218996 -169.02303951 131.21850942 -159.8828125 122.77734375 C-154.96075052 118.96042399 -151.17031371 116.83064602 -144.8828125 116.65234375 C-141.79037315 116.43970965 -140.39124736 116.33794924 -138.15234375 114.14453125 C-137.17781745 112.72846354 -136.22719179 111.29565928 -135.30078125 109.84765625 C-132.26500083 105.54905808 -127.8491432 103.82108012 -122.7578125 102.90234375 C-118.43715502 102.83265573 -117.28810827 103.34620196 -113.8828125 105.83984375 C-112.00390625 108.21484375 -112.00390625 108.21484375 -110.3203125 110.83984375 C-107.14859008 115.76223975 -104.66427577 118.53748832 -98.8828125 119.83984375 C-99.0593335 119.12441406 -99.23585449 118.40898438 -99.41772461 117.671875 C-100.22326825 114.39566198 -101.02183919 111.11778679 -101.8203125 107.83984375 C-102.09810547 106.71449219 -102.37589844 105.58914063 -102.66210938 104.4296875 C-108.98748676 78.36608429 -106.8400439 51.69131822 -96.8828125 26.83984375 C-95.8928125 25.84984375 -95.8928125 25.84984375 -94.8828125 24.83984375 C-94.240289 22.77110341 -94.240289 22.77110341 -93.8828125 20.83984375 C-93.2228125 20.83984375 -92.5628125 20.83984375 -91.8828125 20.83984375 C-91.61726562 20.10378906 -91.35171875 19.36773438 -91.078125 18.609375 C-86.11172357 7.10225536 -74.59484041 -3.28580218 -63.06884766 -7.88378906 C-41.1376928 -16.00969703 -19.11608519 -14.32411262 0 0 Z " fill="#060A0B" transform="translate(601.8828125,775.16015625)"/>
<path d="M0 0 C1.63905688 1.34794081 3.25552775 2.72437753 4.8359375 4.140625 C7.4775977 6.10829998 10.000718 6.83357226 13.1171875 7.83984375 C17.1171875 12.05037007 17.1171875 12.05037007 17.1171875 14.83984375 C17.69726562 15.11441406 18.27734375 15.38898437 18.875 15.671875 C21.06742862 16.81392406 22.97844481 18.09735137 24.9921875 19.52734375 C28.86240936 22.16062485 32.82869476 24.20531292 37.0546875 26.21484375 C47.82531163 31.42242751 57.37908298 38.5666629 61.9296875 49.96484375 C66.5885292 64.05098867 63.51819227 79.97013326 57.49609375 93.21875 C53.42976885 100.94822311 48.40757243 106.65468476 40.2421875 110.02734375 C36.89963649 110.89640701 33.54843249 111.6685473 30.16796875 112.375 C27.93566258 112.8455246 27.93566258 112.8455246 25.1171875 113.83984375 C13.91611969 115.09354125 4.77025277 110.66800949 -3.8828125 103.83984375 C-14.13344385 94.83380845 -25.75810229 80.8620038 -27.1953125 66.77734375 C-26.45056971 57.39358458 -21.7311875 50.9441878 -16.078125 43.66796875 C-10.98885501 37.19529155 -10.98885501 37.19529155 -8.1953125 29.58984375 C-8.62012644 26.5174215 -8.62012644 26.5174215 -11.8828125 25.02734375 C-12.8728125 24.30546875 -13.8628125 23.58359375 -14.8828125 22.83984375 C-14.96484375 20.8046875 -14.96484375 20.8046875 -14.6953125 18.46484375 C-14.41284781 16.10780873 -14.41284781 16.10780873 -14.8828125 13.83984375 C-21.4514595 7.24382738 -28.9078778 6.49109798 -37.76513672 6.45483398 C-47.67512255 6.6375475 -55.96926071 9.9030327 -63.14453125 16.85546875 C-77.66065307 33.42668198 -78.01129338 57.01368305 -76.8828125 77.83984375 C-75.15617119 94.36225691 -69.88663933 111.06354806 -61.984375 125.65234375 C-60.8828125 127.83984375 -60.8828125 127.83984375 -60.8828125 129.83984375 C-59.5628125 130.16984375 -58.2428125 130.49984375 -56.8828125 130.83984375 C-58.275 131.27296875 -58.275 131.27296875 -59.6953125 131.71484375 C-65.69885462 134.22249612 -70.26857854 139.39248986 -74.8828125 143.83984375 C-76.65444569 141.18239397 -77.23535737 139.93620031 -77.8828125 136.96484375 C-78.991272 132.26656297 -78.991272 132.26656297 -80.8828125 127.83984375 C-82.71469042 126.77497605 -82.71469042 126.77497605 -84.8828125 125.83984375 C-85.60339844 125.50984375 -86.32398438 125.17984375 -87.06640625 124.83984375 C-87.81019531 124.50984375 -88.55398438 124.17984375 -89.3203125 123.83984375 C-90.06152344 123.50984375 -90.80273438 123.17984375 -91.56640625 122.83984375 C-93.88197752 121.78150044 -93.88197752 121.78150044 -96.41723633 121.11376953 C-98.8828125 119.83984375 -98.8828125 119.83984375 -99.98535156 117.44482422 C-100.20416992 116.45885254 -100.42298828 115.47288086 -100.6484375 114.45703125 C-101.02355469 112.82894531 -101.02355469 112.82894531 -101.40625 111.16796875 C-101.64601563 110.0284375 -101.88578125 108.88890625 -102.1328125 107.71484375 C-102.38804687 106.59851563 -102.64328125 105.4821875 -102.90625 104.33203125 C-108.76804807 78.16990092 -106.85116037 51.71906296 -96.8828125 26.83984375 C-96.2228125 26.17984375 -95.5628125 25.51984375 -94.8828125 24.83984375 C-94.240289 22.77110341 -94.240289 22.77110341 -93.8828125 20.83984375 C-93.2228125 20.83984375 -92.5628125 20.83984375 -91.8828125 20.83984375 C-91.61726563 20.10378906 -91.35171875 19.36773438 -91.078125 18.609375 C-86.11172357 7.10225536 -74.59484041 -3.28580218 -63.06884766 -7.88378906 C-41.1376928 -16.00969703 -19.11608519 -14.32411262 0 0 Z " fill="#55B301" transform="translate(601.8828125,775.16015625)"/>
<path d="M0 0 C0.66 0 1.32 0 2 0 C6 4.47058824 6 4.47058824 6 7 C6.58007812 7.27457031 7.16015625 7.54914062 7.7578125 7.83203125 C9.95024112 8.97408031 11.86125731 10.25750762 13.875 11.6875 C17.74522186 14.3207811 21.71150726 16.36546917 25.9375 18.375 C36.70812413 23.58258376 46.26189548 30.72681915 50.8125 42.125 C55.4713417 56.21114492 52.40100477 72.13028951 46.37890625 85.37890625 C42.35031034 93.03666222 37.35939621 98.86074521 29.2109375 102.11328125 C20.89091072 104.41090422 11.65622521 104.03691875 4 100 C1.5625 97.9375 1.5625 97.9375 -1 95 C-1.71414063 94.26394531 -2.42828125 93.52789063 -3.1640625 92.76953125 C-12.20083838 83.27650121 -15.30492188 74.91284435 -15.23046875 61.8984375 C-14.75995421 53.93956446 -13.51701785 45.70830158 -11.46777344 37.99731445 C-9.82990594 31.00389379 -9.57174246 20.75589892 -12.75 14.1875 C-15.53749768 10.23854495 -17.99204241 7.67197173 -22 5 C-17.53853262 2.67631907 -14.27115129 1.38661748 -9.1171875 2.2890625 C-3.11085199 4.30595007 1.67252409 8.50683245 6 13 C5.566875 12.14535156 5.13375 11.29070313 4.6875 10.41015625 C4.130625 9.30542969 3.57375 8.20070313 3 7.0625 C2.443125 5.96035156 1.88625 4.85820313 1.3125 3.72265625 C0 1 0 1 0 0 Z " fill="#63CE00" transform="translate(613,783)"/>
<path d="M0 0 C4.67706655 2.91469365 9.37225493 5.9917648 11.15625 11.34375 C11.45131379 17.04542378 11.29256124 22.73398977 10.65625 28.40625 C10.26288331 31.99282867 10.00271621 35.54841366 9.90625 39.15625 C9.86757813 40.46529297 9.86757813 40.46529297 9.828125 41.80078125 C10.24770541 45.05252944 11.14743486 46.75008994 13.15625 49.34375 C15.90395874 51.22379266 15.90395874 51.22379266 19.03125 52.78125 C24.60684972 55.86906701 28.26352306 58.55829611 31.15625 64.34375 C31.82710641 69.13558149 31.69129197 72.42900083 29.21875 76.65625 C24.74621485 81.17917992 18.90009037 83.51699661 12.59375 83.84375 C7.85988392 83.59547031 3.95762873 82.18614455 0.15625 79.34375 C-2.15625 76.15625 -2.15625 76.15625 -3.84375 73.34375 C-8.12105226 71.91798258 -12.40863856 72.44226728 -16.86328125 72.734375 C-20.80452859 72.85180509 -22.59580434 72.53210925 -25.76953125 70.12109375 C-27.77791854 67.43189721 -28.62285834 65.91586571 -29.15625 62.65625 C-29.29804687 61.79515625 -29.43984375 60.9340625 -29.5859375 60.046875 C-29.92449301 56.49717173 -29.85507191 53.02798294 -29.62109375 49.47265625 C-29.67869564 47.31167776 -29.67869564 47.31167776 -30.94921875 45.703125 C-33.53808105 43.84554958 -36.20011199 43.0363114 -39.21875 42.03125 C-45.68228758 39.6560079 -48.74412551 37.54299898 -51.84375 31.34375 C-52.39842568 25.91432847 -52.32160298 21.79540182 -48.84375 17.34375 C-46.78452598 15.28452598 -42.62666876 15.92947421 -39.78125 15.78125 C-39.02263672 15.73806641 -38.26402344 15.69488281 -37.48242188 15.65039062 C-35.60309562 15.54401367 -33.72344756 15.44335066 -31.84375 15.34375 C-31.89015625 14.53550781 -31.9365625 13.72726562 -31.984375 12.89453125 C-32.28098743 4.11268478 -32.28098743 4.11268478 -30.03125 0.15625 C-23.04207363 -5.63478185 -7.74277736 -3.71229051 0 0 Z " fill="#4D3640" transform="translate(585.84375,908.65625)"/>
<path d="M0 0 C2.77708048 1.57140154 5.12952023 3.39200391 7.63671875 5.359375 C11.33540544 7.92705832 14.55781801 8.54776906 19 8 C24.94765006 6.34223316 24.94765006 6.34223316 30 3 C37.12950976 2.23567646 43.14589992 2.65087554 49 7 C52.35666258 9.96852601 54.67999755 12.49598849 55.625 16.9375 C54.92018725 20.3910825 53.55826175 22.90214221 51.8984375 25.98046875 C50.51932861 29.08046569 50.61622406 31.67394187 51 35 C51.65035814 36.34136367 52.3162955 37.67532254 53 39 C53.125 42.25 53.125 42.25 53 45 C49.169312 47.51010872 45.16852441 47.31911257 40.75 47.4375 C29.84852137 47.96011083 25.03962307 49.59673094 17.4453125 57.70703125 C13.48713973 61.41860859 8.86139144 63.67318016 4 66 C3.01 66.495 3.01 66.495 2 67 C-3.20185538 67.51848559 -7.63560371 67.62018013 -12.4375 65.4375 C-16.8167478 61.27187404 -18.92989308 58.20836808 -19.125 52.0625 C-18.35421756 47.82319658 -16.04590234 45.15723605 -13.375 41.8828125 C-11.47395043 39.27967076 -11 37.20214343 -11 34 C-12.38797597 29.74064874 -15.31106051 28.23865336 -19 25.9375 C-24.79367263 22.30949106 -24.79367263 22.30949106 -27 19 C-27.48911334 15.33164996 -27.16846388 13.3515768 -25.5625 10 C-18.65559292 1.91386489 -10.5357464 -1.61794413 0 0 Z " fill="#735E67" transform="translate(463,925)"/>
<path d="M0 0 C6.00632944 3.47579392 9.16242698 8.50319702 12.375 14.5 C14.35778407 17.40713085 14.35778407 17.40713085 18.1875 17.4375 C20.39776746 17.28167409 22.54959538 16.99221015 24.73828125 16.6484375 C30.40915199 15.806132 34.44008843 16.14484293 39.5 19 C42.5585262 21.40777595 44.14378117 23.04266189 45.5 26.6875 C45.5 35.05545698 42.5062095 41.04085698 36.75390625 47.015625 C31.80790202 51.37016598 27.21698873 54.36467014 20.5 54 C20.5 54.66 20.5 55.32 20.5 56 C21.221875 56.20625 21.94375 56.4125 22.6875 56.625 C26.45992464 58.46929649 28.19213669 60.50523557 30.5 64 C31.1875 67.5625 31.1875 67.5625 30.5 71 C27.9375 74 27.9375 74 24.5 76 C20.8125 76.1875 20.8125 76.1875 17.5 75 C15.69157076 72.25818793 14.5 70.32132707 14.5 67 C11.3608586 67.971639 8.63435926 68.91875951 5.8125 70.625 C0.40517514 72.86954994 -5.23052036 73.01185227 -10.84765625 71.2734375 C-15.83158327 68.98176265 -19.01825512 65.96348976 -21.5 61 C-21.98271374 56.45774281 -22.30320251 52.4056044 -20 48.375 C-16.47681994 46.43725097 -13.37534046 46.40782999 -9.5 47 C-3.49100715 48.88517423 -1.33868968 52.71199843 1.5 58 C5.97883696 57.55296014 5.97883696 57.55296014 9.5 55 C8.95730469 54.75765625 8.41460938 54.5153125 7.85546875 54.265625 C0.5212766 50.82978723 0.5212766 50.82978723 -1.5 47 C-1.69464844 46.36449219 -1.88929688 45.72898437 -2.08984375 45.07421875 C-3.55614223 40.27860469 -3.55614223 40.27860469 -7.4375 37.1875 C-9.69389252 36.42584852 -11.94912473 35.89878879 -14.2734375 35.375 C-22.1263544 33.59850466 -30.28530801 31.41839953 -35.2421875 24.60546875 C-37.29287836 20.35760912 -37.34957038 16.60593526 -36.5 12 C-33.56394045 5.805237 -28.53014803 1.99578783 -22.5 -1 C-15.3734373 -3.3755209 -6.84743469 -3.10583796 0 0 Z " fill="#4C353F" transform="translate(647.5,936)"/>
<path d="M0 0 C-0.56847656 0.29132812 -1.13695312 0.58265625 -1.72265625 0.8828125 C-11.395047 6.01773781 -16.91616548 11.25391723 -22 21 C-22.31614258 21.5971582 -22.63228516 22.19431641 -22.95800781 22.80957031 C-28.72631531 33.84291016 -32.30912942 44.86949788 -35 57 C-35.24621094 58.00933594 -35.49242187 59.01867187 -35.74609375 60.05859375 C-41.5228426 87.5081107 -34.94765025 118.34474935 -23.00390625 143.25 C-22 146 -22 146 -22.1484375 148.203125 C-23.65328889 151.3784995 -26.24377615 152.88884982 -29 155 C-29.19335938 154.26394531 -29.38671875 153.52789063 -29.5859375 152.76953125 C-29.84632813 151.79371094 -30.10671875 150.81789063 -30.375 149.8125 C-30.63023437 148.84957031 -30.88546875 147.88664063 -31.1484375 146.89453125 C-32.39001278 141.61729784 -32.39001278 141.61729784 -35.84765625 137.8125 C-36.55792969 137.544375 -37.26820313 137.27625 -38 137 C-38.72058594 136.67 -39.44117188 136.34 -40.18359375 136 C-40.92738281 135.67 -41.67117188 135.34 -42.4375 135 C-43.17871094 134.67 -43.91992188 134.34 -44.68359375 134 C-46.99916502 132.94165669 -46.99916502 132.94165669 -49.53442383 132.27392578 C-52 131 -52 131 -53.10253906 128.60498047 C-53.32135742 127.61900879 -53.54017578 126.63303711 -53.765625 125.6171875 C-54.14074219 123.98910156 -54.14074219 123.98910156 -54.5234375 122.328125 C-54.76320313 121.18859375 -55.00296875 120.0490625 -55.25 118.875 C-55.50523437 117.75867188 -55.76046875 116.64234375 -56.0234375 115.4921875 C-61.88523557 89.33005717 -59.96834787 62.87921921 -50 38 C-49.34 37.34 -48.68 36.68 -48 36 C-47.3574765 33.93125966 -47.3574765 33.93125966 -47 32 C-46.34 32 -45.68 32 -45 32 C-44.73445313 31.26394531 -44.46890625 30.52789063 -44.1953125 29.76953125 C-39.19957183 18.19443276 -27.68238648 7.92982021 -16.13769531 3.24414062 C-14.12339688 2.48080688 -12.10046511 1.76009137 -10.0625 1.0625 C-9.41144287 0.83860596 -8.76038574 0.61471191 -8.08959961 0.3840332 C-4.81203116 -0.66734321 -3.34688798 -1.11562933 0 0 Z " fill="#01A900" transform="translate(555,764)"/>
<path d="M0 0 C11.34533485 3.66226384 23.3921172 10.79470249 30 21 C37.10856265 35.06401779 35.60862926 49.79021549 30.8984375 64.421875 C27.32478247 73.50587552 22.69171395 81.14286574 14 86 C10.11748169 87.63065769 7.1671489 88.07716942 3 88 C3.12117187 87.22398437 3.24234375 86.44796875 3.3671875 85.6484375 C3.72556416 83.33828639 4.07641449 81.02696162 4.421875 78.71484375 C4.770934 76.4719038 5.14805194 74.23273082 5.578125 72.00390625 C8.83419938 53.74663207 8.3525685 34.01125628 4 16 C3.82355957 15.25669434 3.64711914 14.51338867 3.46533203 13.74755859 C2.36934135 9.14863905 1.21162939 4.56974943 0 0 Z " fill="#63CE00" transform="translate(631,798)"/>
<path d="M0 0 C3.75077625 2.78629093 5.77429295 5.56111754 6.5 10.1875 C6.01932555 12.8912938 5.21151855 14.5769629 4 17 C3.83275263 20.16695956 3.83275263 20.16695956 4 23 C5.0725 23.226875 6.145 23.45375 7.25 23.6875 C11.45821287 25.16037451 12.81805066 26.15976916 15 30 C15.67454401 34.62544464 14.76861776 37.27301456 12 41 C9.49334994 42.25332503 7.54725844 42.1787513 4.75 42.3125 C-0.23385261 42.71642008 -3.04352072 43.81551668 -7 47 C-10.68115026 49.37493565 -13.65563161 49.43443684 -18 49 C-22.95808919 47.19439665 -27.14935865 44.29846047 -31.33984375 41.1484375 C-33.17257607 39.80676971 -33.17257607 39.80676971 -36.1875 38.5625 C-39.83072801 36.53848444 -41.16764271 34.73518986 -43 31 C-43.6259044 27.96407119 -43.46277856 26.18803005 -43 23 C-39.32150715 19.27954715 -35.22422538 17.8232682 -30.3125 16.375 C-25.22499087 14.99656549 -25.22499087 14.99656549 -21 12 C-20.731875 11.071875 -20.46375 10.14375 -20.1875 9.1875 C-18.49001021 4.63108003 -15.86417538 2.13921829 -11.75 -0.375 C-7.61866895 -1.31393888 -4.04921669 -1.33553112 0 0 Z " fill="#4C353F" transform="translate(545,958)"/>
<path d="M0 0 C2.78717889 0.08197585 4.51752767 0.56235395 6.59765625 2.44921875 C11.76774532 8.30526559 13.37007702 13.08665255 13.3125 20.9375 C13.31048584 21.68314209 13.30847168 22.42878418 13.30639648 23.19702148 C13.17898168 30.36963575 11.70173764 37.04822072 10 44 C7.61875205 56.34721157 7.94235211 68.74713427 14.625 79.625 C17.61222909 83.8719949 21.23525392 87.09810345 25.2421875 90.37109375 C26.11230469 91.17740234 26.11230469 91.17740234 27 92 C27 92.66 27 93.32 27 94 C31.95 94.99 36.9 95.98 42 97 C39.07860304 99.92139696 36.41028144 100.19133973 32.4375 100.3125 C21.00769643 100.16298222 11.36453277 93.41508474 3.375 85.75 C-4.81820614 77.21481656 -14.07670547 65.04828637 -15.3125 52.9375 C-14.56775721 43.55374083 -9.848375 37.10434405 -4.1953125 29.828125 C0.89395749 23.3554478 0.89395749 23.3554478 3.6875 15.75 C3.21574468 12.67456723 3.21574468 12.67456723 0 10.625 C-0.99 10.08875 -1.98 9.5525 -3 9 C-2.44271087 5.65626525 -1.64826111 2.96687001 0 0 Z " fill="#02C901" transform="translate(590,789)"/>
<path d="M0 0 C4.67706655 2.91469365 9.37225493 5.9917648 11.15625 11.34375 C11.45131379 17.04542378 11.29256124 22.73398977 10.65625 28.40625 C9.26323521 39.83529582 9.26323521 39.83529582 13.15625 50.34375 C9.21637221 49.0659518 7.25149161 47.94530457 5.15625 44.34375 C4.89501953 41.50634766 4.89501953 41.50634766 5.0390625 38.2578125 C5.07128906 37.07960938 5.10351562 35.90140625 5.13671875 34.6875 C5.23278204 32.21581759 5.3369007 29.74443462 5.44921875 27.2734375 C5.86632971 19.97408505 5.86632971 19.97408505 2.8671875 13.60546875 C-3.22715972 8.52099175 -10.05471742 7.05028486 -17.83984375 7.109375 C-20.89278501 7.46644415 -23.23916662 8.78099997 -25.84375 10.34375 C-25.82054687 11.04242187 -25.79734375 11.74109375 -25.7734375 12.4609375 C-25.74636719 13.82605469 -25.74636719 13.82605469 -25.71875 15.21875 C-25.69554687 16.12367188 -25.67234375 17.02859375 -25.6484375 17.9609375 C-25.84375 20.34375 -25.84375 20.34375 -27.84375 22.34375 C-30.33984375 22.36328125 -30.33984375 22.36328125 -33.28125 22.15625 C-37.63262305 21.95655713 -37.63262305 21.95655713 -41.09375 24.34375 C-42.08400028 28.30475112 -42.01343751 31.43106289 -40.84375 35.34375 C-38.1218304 39.6041459 -33.66330357 40.77055718 -29.0859375 42.4140625 C-26.84375 43.34375 -26.84375 43.34375 -24.84375 45.34375 C-24.56630039 47.62627362 -24.39345322 49.92216497 -24.28125 52.21875 C-24.02447642 57.85510685 -24.02447642 57.85510685 -22.84375 63.34375 C-18.66446385 63.94079088 -14.86808078 64.38256125 -10.65625 64.09375 C-6.84375 64.34375 -6.84375 64.34375 -4.09375 66.65625 C-2.98 67.9865625 -2.98 67.9865625 -1.84375 69.34375 C1.94370631 72.72109958 4.68106279 72.86234969 9.61328125 72.6875 C13.78454168 72.12364298 15.86037048 71.02165211 19.15625 68.34375 C20.83863063 64.97898875 21.52684544 62.81326387 20.59375 59.11328125 C19.87248026 57.15406296 19.02268365 55.24323916 18.15625 53.34375 C24.07409383 54.61185939 26.74218084 57.6285535 30.15625 62.34375 C31.90675881 65.84476761 31.70386276 69.52334567 31.15625 73.34375 C27.85410928 78.98934542 23.38764961 81.53430607 17.15625 83.34375 C11.47141093 84.28961457 6.9058582 83.41384561 1.875 80.62890625 C-0.74124607 78.67266771 -2.18137502 76.11437496 -3.84375 73.34375 C-8.12105226 71.91798258 -12.40863856 72.44226728 -16.86328125 72.734375 C-20.80452859 72.85180509 -22.59580434 72.53210925 -25.76953125 70.12109375 C-27.77791854 67.43189721 -28.62285834 65.91586571 -29.15625 62.65625 C-29.29804687 61.79515625 -29.43984375 60.9340625 -29.5859375 60.046875 C-29.92449301 56.49717173 -29.85507191 53.02798294 -29.62109375 49.47265625 C-29.67869564 47.31167776 -29.67869564 47.31167776 -30.94921875 45.703125 C-33.53808105 43.84554958 -36.20011199 43.0363114 -39.21875 42.03125 C-45.68228758 39.6560079 -48.74412551 37.54299898 -51.84375 31.34375 C-52.39842568 25.91432847 -52.32160298 21.79540182 -48.84375 17.34375 C-46.78452598 15.28452598 -42.62666876 15.92947421 -39.78125 15.78125 C-39.02263672 15.73806641 -38.26402344 15.69488281 -37.48242188 15.65039062 C-35.60309562 15.54401367 -33.72344756 15.44335066 -31.84375 15.34375 C-31.89015625 14.53550781 -31.9365625 13.72726562 -31.984375 12.89453125 C-32.28098743 4.11268478 -32.28098743 4.11268478 -30.03125 0.15625 C-23.04207363 -5.63478185 -7.74277736 -3.71229051 0 0 Z " fill="#715C65" transform="translate(585.84375,908.65625)"/>
<path d="M0 0 C2.84594033 1.35355699 3.87721417 2.49620133 6 5 C6.375 8.3125 6.375 8.3125 6 11 C7.03125 11.0825 8.0625 11.165 9.125 11.25 C13.93754579 12.18146047 17.30700012 13.84527287 20.375 17.75 C21.59508092 22.14229133 21.83816331 25.93452613 20.125 30.15625 C17.39995748 34.96093024 14.31978702 38.26574943 9 40 C5.79848222 40.69820335 3.17931858 40.86247472 0 40 C-2.08501077 38.39454171 -3.72092885 36.65792075 -5.4609375 34.6875 C-8.65282999 31.18776001 -12.0207221 30.99055346 -16.5 30.6875 C-19.91102724 30.34013329 -21.06494142 29.95758927 -24.0625 28 C-26.63719604 24.01337387 -26.82535744 20.63937759 -26 16 C-25.34 15.01 -24.68 14.02 -24 13 C-21.1796875 12.70703125 -21.1796875 12.70703125 -17.875 12.8125 C-16.23144531 12.85310547 -16.23144531 12.85310547 -14.5546875 12.89453125 C-13.71164062 12.92933594 -12.86859375 12.96414063 -12 13 C-12.05220703 11.96939453 -12.05220703 11.96939453 -12.10546875 10.91796875 C-12.14607422 9.56638672 -12.14607422 9.56638672 -12.1875 8.1875 C-12.22230469 7.29417969 -12.25710938 6.40085937 -12.29296875 5.48046875 C-12 3 -12 3 -10.7578125 1.20703125 C-7.43706717 -1.07321388 -3.84311179 -0.69280587 0 0 Z " fill="#4C363F" transform="translate(480,887)"/>
<path d="M0 0 C0.90352052 2.25027753 1.52278279 4.5184182 2.1796875 6.8515625 C3.51973825 10.36121922 5.71773401 11.358867 9 13 C9.76570313 13.28875 10.53140625 13.5775 11.3203125 13.875 C17.63661129 16.31215709 17.63661129 16.31215709 19.75 20.3125 C20.05207925 24.76816898 19.19490803 27.13998934 17 31 C13.19918744 33.53387504 11.3894919 33.26840083 6.98046875 32.75390625 C1.44588182 31.35393865 -5.91339969 28.08660031 -10 24 C-13.61078783 23.79668139 -17.21473801 23.65294885 -20.83007812 23.5703125 C-22.89375904 23.4858652 -24.95000594 23.25186231 -27 23 C-29.85940501 18.71089248 -29.7157027 15.03228464 -29 10 C-26.62861659 3.78570508 -22.93633612 0.6983346 -17 -2 C-11.19686864 -4.17617426 -4.96103753 -3.72077815 0 0 Z " fill="#4B353F" transform="translate(418,947)"/>
<path d="M0 0 C0 4.06939495 -1.88550245 6.86992539 -3.75 10.375 C-11.39935089 25.22858144 -14.38864211 40.04078922 -14.3125 56.6875 C-14.30903564 57.92048828 -14.30557129 59.15347656 -14.30200195 60.42382812 C-14.19213782 69.65484307 -13.28224739 78.0603213 -11 87 C-10.77183594 88.03382813 -10.54367187 89.06765625 -10.30859375 90.1328125 C-8.27282177 99.0436773 -5.58835365 108.14095428 -1.28125 116.2265625 C0 119 0 119 -1 122 C-1.61875 121.401875 -2.2375 120.80375 -2.875 120.1875 C-5.95524181 118.03133073 -7.55799264 117.57387877 -11.125 116.8125 C-15.60727471 115.53279731 -15.60727471 115.53279731 -17.171875 113.41015625 C-18.0188427 110.9586553 -18.50816664 108.54889315 -19 106 C-19.33176488 104.63505374 -19.67091364 103.27189055 -20.015625 101.91015625 C-26.82219367 74.61803085 -25.48967101 47.18034882 -15 21 C-14.34 20.34 -13.68 19.68 -13 19 C-12.3574765 16.93125966 -12.3574765 16.93125966 -12 15 C-11.34 15 -10.68 15 -10 15 C-9.74347656 14.27296875 -9.48695313 13.5459375 -9.22265625 12.796875 C-7.94197175 9.86725805 -6.43571771 7.73630012 -4.4375 5.25 C-3.81746094 4.47140625 -3.19742188 3.6928125 -2.55859375 2.890625 C-1 1 -1 1 0 0 Z " fill="#016E02" transform="translate(520,781)"/>
<path d="M0 0 C0.66 0 1.32 0 2 0 C6 4.47058824 6 4.47058824 6 7 C6.57878906 7.28617188 7.15757812 7.57234375 7.75390625 7.8671875 C8.49511719 8.24101563 9.23632812 8.61484375 10 9 C10.64839844 9.31195312 11.29679688 9.62390625 11.96484375 9.9453125 C18.52541039 13.86866126 20.16330709 19.61261941 21.96875 26.62890625 C22.31542096 28.08524528 22.659256 29.54226283 23 31 C23.3196875 32.26714844 23.639375 33.53429687 23.96875 34.83984375 C29.05783151 57.20352972 26.4780043 81.01494275 21 103 C20.67 103 20.34 103 20 103 C19.9498877 101.93265625 19.89977539 100.8653125 19.84814453 99.765625 C19.65675691 95.72462026 19.45717089 91.68405171 19.25537109 87.64355469 C19.16987494 85.90993604 19.08646853 84.1762128 19.00537109 82.44238281 C17.75719243 55.84539048 15.6051504 30.3284113 -5 11 C-9.01540445 7.93618152 -13.21277294 5.6456093 -18 4 C-14.67383428 1.78255619 -13.13767445 1.73007015 -9.2578125 2.32421875 C-3.16480564 4.14790419 1.66927427 8.5034582 6 13 C5.566875 12.14535156 5.13375 11.29070313 4.6875 10.41015625 C4.130625 9.30542969 3.57375 8.20070313 3 7.0625 C2.443125 5.96035156 1.88625 4.85820313 1.3125 3.72265625 C0 1 0 1 0 0 Z " fill="#D5D92D" transform="translate(613,783)"/>
<path d="M0 0 C6.00899285 1.88517423 8.16131032 5.71199843 11 11 C15.10829145 10.47311378 15.10829145 10.47311378 18.9296875 8.984375 C22.52371028 7.27551889 26.11250513 7.45237029 30 8 C34.33282707 10.20728926 37.4755849 12.82500579 40 17 C40.625 20.5 40.625 20.5 40 24 C37.4375 27 37.4375 27 34 29 C30.3125 29.1875 30.3125 29.1875 27 28 C25.19157076 25.25818793 24 23.32132707 24 20 C20.8608586 20.971639 18.13435926 21.91875951 15.3125 23.625 C9.90517514 25.86954994 4.26947964 26.01185227 -1.34765625 24.2734375 C-6.33158327 21.98176265 -9.51825512 18.96348976 -12 14 C-12.48271374 9.45774281 -12.80320251 5.4056044 -10.5 1.375 C-6.97681994 -0.56274903 -3.87534046 -0.59217001 0 0 Z " fill="#725D66" transform="translate(638,983)"/>
<path d="M0 0 C1.14984375 0.02449219 2.2996875 0.04898438 3.484375 0.07421875 C6.25 0.3125 6.25 0.3125 7.25 1.3125 C7.32179964 2.83178038 7.33392007 4.35417482 7.3125 5.875 C7.30347656 6.70128906 7.29445313 7.52757812 7.28515625 8.37890625 C7.27355469 9.01699219 7.26195312 9.65507813 7.25 10.3125 C8.15363281 10.27769531 9.05726563 10.24289062 9.98828125 10.20703125 C11.16777344 10.17996094 12.34726562 10.15289063 13.5625 10.125 C15.32013672 10.07279297 15.32013672 10.07279297 17.11328125 10.01953125 C20.25 10.3125 20.25 10.3125 22.140625 11.5546875 C24.261073 14.91455228 23.83016044 18.4990859 23.25 22.3125 C20.82624144 27.34646009 18.33935636 29.21050548 13.25 31.3125 C4.2629113 32.43210364 -4.73473291 31.7822875 -12.75 27.3125 C-15.05078125 25.421875 -15.05078125 25.421875 -16.75 23.3125 C-16.75 21.9925 -16.75 20.6725 -16.75 19.3125 C-13.75 17.0625 -13.75 17.0625 -10.75 15.3125 C-10.94529297 14.19101562 -10.94529297 14.19101562 -11.14453125 13.046875 C-11.28246094 12.06203125 -11.42039062 11.0771875 -11.5625 10.0625 C-11.78873047 8.60070312 -11.78873047 8.60070312 -12.01953125 7.109375 C-11.75 4.3125 -11.75 4.3125 -9.68359375 1.97265625 C-6.16579169 -0.01811056 -4.01452578 -0.13169824 0 0 Z " fill="#725E67" transform="translate(405.75,978.6875)"/>
<path d="M0 0 C1.51164952 4.58918379 -0.31658709 7.53869767 -2.3125 11.6875 C-6.83624154 21.55909705 -10.284539 31.14097565 -6.5 41.875 C0.08603532 56.91234637 13.45740602 66.91615783 28.1171875 73.26513672 C31.97483263 74.77077882 35.88753044 75.60457023 40 76 C37.07860304 78.92139696 34.41028144 79.19133973 30.4375 79.3125 C19.00769643 79.16298222 9.36453277 72.41508474 1.375 64.75 C-6.81820614 56.21481656 -16.07670547 44.04828637 -17.3125 31.9375 C-16.57169872 22.60340393 -11.90692778 16.06699753 -6.21875 8.859375 C-3.98538586 5.98116628 -1.98601213 3.05123682 0 0 Z " fill="#028001" transform="translate(592,810)"/>
<path d="M0 0 C3.0391545 0.82310434 4.27156053 1.2198408 6 3.8125 C6 5.1325 6 6.4525 6 7.8125 C6.9075 7.874375 7.815 7.93625 8.75 8 C12 8.8125 12 8.8125 14.4375 10.9375 C16.52364592 14.7760085 16.18876965 16.65180623 15 20.8125 C12.84886743 24.15046434 10.88038393 26.67121061 7 27.8125 C2.20117833 27.70817779 0.16627335 26.20680875 -3.28515625 23.01171875 C-5.97714703 21.12916483 -8.8400833 20.81439315 -12.046875 20.3671875 C-14 19.8125 -14 19.8125 -16 16.8125 C-15.43396226 10.24646226 -15.43396226 10.24646226 -14 8.8125 C-11.32941149 8.67134839 -8.67567762 8.77002893 -6 8.8125 C-6.061875 7.69875 -6.12375 6.585 -6.1875 5.4375 C-6.125625 4.24125 -6.06375 3.045 -6 1.8125 C-3 -0.1875 -3 -0.1875 0 0 Z " fill="#735E67" transform="translate(477,893.1875)"/>
<path d="M0 0 C0.66 0.33 1.32 0.66 2 1 C-1.96 4.96 -5.92 8.92 -10 13 C-10 9.28115772 -9.1259934 8.63852271 -6.6875 5.9375 C-5.76517578 4.89916016 -5.76517578 4.89916016 -4.82421875 3.83984375 C-3 2 -3 2 0 0 Z " fill="#E3F2D7" transform="translate(545,786)"/>
</svg>
