<?xml version="1.0" encoding="UTF-8"?>
<svg version="1.1" xmlns="http://www.w3.org/2000/svg" width="1024" height="1024">
<path d="M0 0 C337.92 0 675.84 0 1024 0 C1024 337.92 1024 675.84 1024 1024 C686.08 1024 348.16 1024 0 1024 C0 686.08 0 348.16 0 0 Z " fill="#FEFEFE" transform="translate(0,0)"/>
<path d="M0 0 C1.33263885 0.00123871 1.33263885 0.00123871 2.69219971 0.00250244 C21.78495451 0.04313898 40.35407463 1.73817811 59.125 5.3125 C66.32676136 32.51458147 69.21591985 59.47533347 63.125 87.3125 C62.89949463 88.34697266 62.89949463 88.34697266 62.66943359 89.40234375 C56.99023171 113.98273154 44.35740472 143.10942227 23.171875 158.06640625 C12.11594352 164.79702103 0.16248468 165.94672926 -12.4609375 163.6640625 C-31.36802141 158.30781839 -44.3844312 146.00008348 -53.875 129.3125 C-54.89313975 127.32167317 -55.89946278 125.32454551 -56.875 123.3125 C-69.41337412 137.53438327 -80.68214053 152.70903234 -89.875 169.3125 C-90.34824707 170.16473145 -90.82149414 171.01696289 -91.30908203 171.89501953 C-105.63417333 197.93113437 -118.26345885 227.06599658 -110.875 257.3125 C-104.57506399 277.83651027 -89.79409674 292.39652532 -75.44970703 307.63769531 C-63.53732189 320.30730184 -53.31805692 333.73212444 -43.875 348.3125 C-43.215 349.3025 -42.555 350.2925 -41.875 351.3125 C-41.875 352.3025 -41.875 353.2925 -41.875 354.3125 C-41.02421875 353.99925781 -40.1734375 353.68601562 -39.296875 353.36328125 C-30.12797485 350.54771716 -20.6864952 350.38349375 -11.875 354.3125 C-2.26712285 359.51676679 5.59005293 368.63529031 13.12695312 376.43896484 C16.56252432 379.94652131 19.93688705 382.7425216 24.125 385.3125 C24.67027344 384.78140625 25.21554687 384.2503125 25.77734375 383.703125 C33.77934455 376.20723365 41.71257435 371.89144877 52.890625 372.1015625 C64.22559635 373.17164721 72.66373886 379.03932697 79.8125 387.578125 C81.125 389.3125 81.125 389.3125 82.125 391.3125 C84.08640821 392.04913747 86.07024234 392.72641203 88.0625 393.375 C98.36976416 397.22892223 106.1189334 404.49862687 111.125 414.3125 C113.61194863 420.38330236 114.48773794 425.78321714 114.125 432.3125 C114.87523437 432.25449219 115.62546875 432.19648437 116.3984375 432.13671875 C125.00723414 431.75723779 131.32965118 433.14757419 137.9375 438.88671875 C142.97328488 444.28759803 146.27182181 450.75898541 146.625 458.1875 C146.36557521 464.32722013 144.59815786 470.91940752 140.94218481 475.93528414 C138.2731446 477.95810785 136.20616729 477.69103419 132.88207436 477.69561005 C130.90787968 477.70919501 130.90787968 477.70919501 128.89380229 477.72305441 C127.42436859 477.71794954 125.95493586 477.71255742 124.48550415 477.70690918 C122.93142421 477.7117949 121.37734791 477.71798321 119.82327783 477.72536707 C115.54126141 477.74183049 111.25942832 477.73943572 106.97739124 477.7339921 C102.36378509 477.73132974 97.75022868 477.74583875 93.13664246 477.75808716 C84.09351359 477.77917733 75.05044879 477.78367995 66.00729825 477.78189927 C58.65900566 477.7805934 51.31073312 477.78438683 43.96244431 477.79182434 C41.8485169 477.79392346 39.7345895 477.79602106 37.62066209 477.79811716 C36.56860933 477.79916069 35.51655658 477.80020422 34.43262343 477.80127937 C14.51978077 477.82019634 -5.39302507 477.81912713 -25.30587299 477.81231004 C-43.53473357 477.80673397 -61.76345363 477.82756017 -79.99228136 477.86067051 C-98.69524785 477.89437922 -117.39814698 477.90957933 -136.10114443 477.90495348 C-146.60720907 477.90270587 -157.11314384 477.90799438 -167.61918259 477.93284607 C-176.56353403 477.95382286 -185.5076844 477.95748733 -194.452044 477.93854648 C-199.01776972 477.92936605 -203.5831202 477.92831575 -208.14881706 477.94890213 C-212.32621744 477.96752976 -216.50293311 477.96320187 -220.68030675 477.94035631 C-222.19375592 477.93614963 -223.70725674 477.94043967 -225.22065143 477.95395225 C-227.27473186 477.9710474 -229.32640381 477.95747282 -231.38039207 477.93611908 C-232.52210377 477.93639146 -233.66381547 477.93666385 -234.84012449 477.93694448 C-239.99449817 476.87640009 -242.19404872 473.33392692 -245 469.125 C-249.64295492 460.31286108 -250.83793642 452.13922464 -248.875 442.3125 C-246.63640446 435.74833141 -243.64641916 431.16011278 -237.875 427.3125 C-234.28533873 425.63134197 -231.32041731 425.05786344 -227.375 424.875 C-223.12872751 424.53826603 -220.18405447 424.20792266 -216.875 421.3125 C-214.29231389 418.1338094 -213.47142453 414.90188854 -212.5 411 C-209.94737303 401.23456553 -204.14137907 393.80109346 -195.93359375 387.921875 C-190.81308062 384.98404524 -185.68080985 384.22503407 -179.875 385.3125 C-177.41165574 386.4425103 -175.22503265 387.70272185 -172.98046875 389.21875 C-170.44505722 390.5358469 -168.69404298 390.39386605 -165.875 390.3125 C-165.78001221 389.60754395 -165.68502441 388.90258789 -165.5871582 388.17626953 C-165.13878278 384.9272108 -164.66333329 381.68264656 -164.1875 378.4375 C-164.03861328 377.32890625 -163.88972656 376.2203125 -163.73632812 375.078125 C-162.08189012 364.04853832 -158.80033912 356.01370237 -150.0625 348.87109375 C-146.58379223 346.39251446 -143.73861991 345.34567123 -139.4609375 345.26953125 C-136.77235398 345.18625654 -134.46445426 345.0566961 -131.875 344.3125 C-130.17017443 342.43503387 -129.16479781 340.57874885 -128.0234375 338.3203125 C-125.76744833 334.37616817 -122.03776832 332.70008944 -117.875 331.3125 C-116.48060336 331.24584624 -115.08330125 331.22711801 -113.6875 331.25 C-112.429375 331.270625 -111.17125 331.29125 -109.875 331.3125 C-110.54704468 330.31621582 -110.54704468 330.31621582 -111.23266602 329.29980469 C-113.30477083 326.22326126 -115.37114894 323.14291057 -117.4375 320.0625 C-118.49420898 318.49628906 -118.49420898 318.49628906 -119.57226562 316.8984375 C-132.69185818 297.3097371 -132.69185818 297.3097371 -136.1875 286.8125 C-136.42533203 286.15636719 -136.66316406 285.50023437 -136.90820312 284.82421875 C-140.71918446 273.78187394 -141.05049195 262.88408307 -140.79598999 251.33511353 C-140.4992354 236.26758126 -141.20140151 222.00689395 -144.875 207.3125 C-145.17180664 206.12140625 -145.17180664 206.12140625 -145.47460938 204.90625 C-147.63021468 196.53496728 -150.38717647 188.51944551 -153.95703125 180.6328125 C-154.875 178.3125 -154.875 178.3125 -154.875 175.3125 C-155.535 175.3125 -156.195 175.3125 -156.875 175.3125 C-156.82859375 175.96734375 -156.7821875 176.6221875 -156.734375 177.296875 C-156.36203957 186.71164219 -158.07527884 195.35071577 -164.125 202.8125 C-170.51471179 209.36535337 -178.61710989 211.99203906 -187.62109375 212.453125 C-199.05428249 212.14945465 -208.53624978 206.95725754 -216.6875 199.25 C-229.53505496 185.37918845 -234.5151962 171.19961985 -236.66162109 152.50341797 C-237.63608382 144.79602196 -240.10381527 136.77993816 -245.875 131.3125 C-258.00594 123.12172752 -273.23699598 123.24321926 -287.125 125.8125 C-288.69216873 126.09674139 -290.25986445 126.37809568 -291.828125 126.65625 C-292.85147949 126.84477539 -292.85147949 126.84477539 -293.89550781 127.03710938 C-295.875 127.3125 -295.875 127.3125 -299.875 127.3125 C-299.30903308 122.10560435 -297.60836652 118.1519021 -295.25 113.5625 C-294.890271 112.85657715 -294.53054199 112.1506543 -294.15991211 111.42333984 C-282.71131185 89.39303751 -264.69837368 74.6133596 -241.1875 66.9375 C-213.04477975 59.13350641 -183.8016998 63.98214282 -158 77.125 C-137.90584784 88.83093911 -122.50832358 106.65923123 -115.875 129.1875 C-113.47580782 140.69735008 -112.9690972 154.84689283 -118.875 165.3125 C-123.63127841 171.97088807 -128.84106049 177.85062759 -136.875 180.3125 C-140.8125 180 -140.8125 180 -143.875 179.3125 C-143.6483667 179.91610352 -143.4217334 180.51970703 -143.18823242 181.14160156 C-132.875 208.72417474 -132.875 208.72417474 -132.875 217.3125 C-132.215 217.3125 -131.555 217.3125 -130.875 217.3125 C-130.77372803 216.46324951 -130.67245605 215.61399902 -130.56811523 214.73901367 C-129.79888639 210.93622156 -128.48652995 207.97275824 -126.78515625 204.48828125 C-126.48056992 203.86020065 -126.17598358 203.23212006 -125.86216736 202.58500671 C-125.22103268 201.26642427 -124.57624097 199.94961431 -123.92797852 198.63452148 C-122.93700721 196.6240002 -121.95682614 194.60850467 -120.97851562 192.59179688 C-116.21886785 182.82830178 -116.21886785 182.82830178 -113.875 179.3125 C-113.44819266 176.81774369 -113.44819266 176.81774369 -113.3125 174.0078125 C-113.2388623 172.95513184 -113.16522461 171.90245117 -113.08935547 170.81787109 C-113.01861816 169.70234863 -112.94788086 168.58682617 -112.875 167.4375 C-112.31780087 159.52752362 -111.69508568 151.76188309 -110.2421875 143.9609375 C-109.3116255 137.24901156 -110.32717418 131.33902214 -111.75 124.8125 C-112.1147321 123.03050916 -112.4766903 121.24794843 -112.8359375 119.46484375 C-113.57478592 115.79789295 -113.57478592 115.79789295 -114.32519531 112.13330078 C-116.2232303 102.65467105 -116.07927194 95.15472236 -111.875 86.3125 C-110.34386746 84.16673231 -108.81216255 82.24966255 -106.94921875 80.38671875 C-105.51767354 77.6225351 -106.04384603 75.53426096 -106.53588867 72.5402832 C-108.69302336 58.36904199 -107.18409333 44.26707141 -98.6171875 32.4609375 C-80.48957745 10.10626143 -51.94347305 3.67372095 -24.56787109 0.72045898 C-16.39534582 -0.06163829 -8.20248946 -0.03242091 0 0 Z " fill="#01AA01" transform="translate(629.875,546.6875)"/>
<path d="M0 0 C4.10020253 2.8523148 6.27729553 6.83920381 8.69140625 11.1328125 C11.72347124 15.45916195 15.40931235 16.58900907 20.375 17.9375 C28.06827866 20.23515705 32.91439904 22.7551551 37.03125 29.76171875 C38.61085749 33.41137639 38.89959151 37.05668486 39 41 C39.70962891 40.36384766 39.70962891 40.36384766 40.43359375 39.71484375 C42.6050109 37.78892795 44.79707596 35.88979939 47 34 C47.70898438 33.39027344 48.41796875 32.78054688 49.1484375 32.15234375 C59.27854741 23.83248814 71.71113373 18.79192125 85 20 C99.97502486 23.28778591 109.7175687 34.47805677 120.00195312 45.12646484 C123.43752432 48.63402131 126.81188705 51.4300216 131 54 C131.81791016 53.20335937 131.81791016 53.20335937 132.65234375 52.390625 C140.65434455 44.89473365 148.58757435 40.57894877 159.765625 40.7890625 C171.10059635 41.85914721 179.53873886 47.72682697 186.6875 56.265625 C188 58 188 58 189 60 C190.96140821 60.73663747 192.94524234 61.41391203 194.9375 62.0625 C205.24476416 65.91642223 212.9939334 73.18612687 218 83 C220.48694863 89.07080236 221.36273794 94.47071714 221 101 C221.75023437 100.94199219 222.50046875 100.88398437 223.2734375 100.82421875 C231.88223414 100.44473779 238.20465118 101.83507419 244.8125 107.57421875 C249.84828488 112.97509803 253.14682181 119.44648541 253.5 126.875 C253.24057521 133.01472013 251.47315786 139.60690752 247.81718481 144.62278414 C245.1481446 146.64560785 243.08116729 146.37853419 239.75707436 146.38311005 C238.44094457 146.39216669 237.12481479 146.40122333 235.76880229 146.41055441 C234.29936859 146.40544954 232.82993586 146.40005742 231.36050415 146.39440918 C229.80642421 146.3992949 228.25234791 146.40548321 226.69827783 146.41286707 C222.41626141 146.42933049 218.13442832 146.42693572 213.85239124 146.4214921 C209.23878509 146.41882974 204.62522868 146.43333875 200.01164246 146.44558716 C190.96851359 146.46667733 181.92544879 146.47117995 172.88229825 146.46939927 C165.53400566 146.4680934 158.18573312 146.47188683 150.83744431 146.47932434 C148.7235169 146.48142346 146.6095895 146.48352106 144.49566209 146.48561716 C143.44360933 146.48666069 142.39155658 146.48770422 141.30762343 146.48877937 C121.39478077 146.50769634 101.48197493 146.50662713 81.56912701 146.49981004 C63.34026643 146.49423397 45.11154637 146.51506017 26.88271864 146.54817051 C8.17975215 146.58187922 -10.52314698 146.59707933 -29.22614443 146.59245348 C-39.73220907 146.59020587 -50.23814384 146.59549438 -60.74418259 146.62034607 C-69.68853403 146.64132286 -78.6326844 146.64498733 -87.577044 146.62604648 C-92.14276972 146.61686605 -96.7081202 146.61581575 -101.27381706 146.63640213 C-105.45121744 146.65502976 -109.62793311 146.65070187 -113.80530675 146.62785631 C-115.31875592 146.62364963 -116.83225674 146.62793967 -118.34565143 146.64145225 C-120.39973186 146.6585474 -122.45140381 146.64497282 -124.50539207 146.62361908 C-125.64710377 146.62389146 -126.78881547 146.62416385 -127.96512449 146.62444448 C-133.11949817 145.56390009 -135.31904872 142.02142692 -138.125 137.8125 C-142.76795492 129.00036108 -143.96293642 120.82672464 -142 111 C-139.76140446 104.43583141 -136.77141916 99.84761278 -131 96 C-127.41033873 94.31884197 -124.44541731 93.74536344 -120.5 93.5625 C-116.25372751 93.22576603 -113.30905447 92.89542266 -110 90 C-107.41731389 86.8213094 -106.59642453 83.58938854 -105.625 79.6875 C-103.07237303 69.92206553 -97.26637907 62.48859346 -89.05859375 56.609375 C-83.93808062 53.67154524 -78.80580985 52.91253407 -73 54 C-70.53665574 55.1300103 -68.35003265 56.39022185 -66.10546875 57.90625 C-63.57005722 59.2233469 -61.81904298 59.08136605 -59 59 C-58.85751831 57.94256592 -58.85751831 57.94256592 -58.7121582 56.86376953 C-58.26378278 53.6147108 -57.78833329 50.37014656 -57.3125 47.125 C-57.16361328 46.01640625 -57.01472656 44.9078125 -56.86132812 43.765625 C-55.20689012 32.73603832 -51.92533912 24.70120237 -43.1875 17.55859375 C-39.70879223 15.08001446 -36.86361991 14.03317123 -32.5859375 13.95703125 C-29.89735398 13.87375654 -27.58945426 13.7441961 -25 13 C-23.29517443 11.12253387 -22.28979781 9.26624885 -21.1484375 7.0078125 C-16.87184069 -0.46895879 -7.63278836 -0.96532323 0 0 Z " fill="#070B0C" transform="translate(523,878)"/>
<path d="M0 0 C1.33263885 0.00123871 1.33263885 0.00123871 2.69219971 0.00250244 C21.78495451 0.04313898 40.35407463 1.73817811 59.125 5.3125 C68.47218101 40.61813798 68.47218101 40.61813798 65.125 47.3125 C64.91237231 49.06194165 64.70519877 50.81228086 64.53051758 52.56591797 C61.86732293 79.24558127 54.52294418 106.99446677 36.125 127.3125 C35.05958984 128.49972656 35.05958984 128.49972656 33.97265625 129.7109375 C24.97990869 139.22523281 15.93133857 144.23688054 2.875 144.625 C-9.80168298 144.37615057 -22.60270006 140.31987708 -31.875 131.3125 C-37.19479109 124.99023572 -41.04557851 118.8840703 -40.875 110.3125 C-39.81946934 103.83597235 -38.0493928 100.62427004 -33.25 96.25 C-32.70585449 95.73107178 -32.16170898 95.21214355 -31.60107422 94.67749023 C-28.1919944 91.44972295 -24.69761136 88.31849905 -21.12109375 85.27734375 C-18.65768759 83.12239888 -16.27505617 80.89407806 -13.88989258 78.65332031 C-4.73065572 70.05330473 4.88173677 62.17859821 14.88696289 54.58520508 C17.08736443 52.91127374 19.16722566 51.27027434 21.125 49.3125 C-1.24995378 62.60662458 -21.67742367 77.76861926 -41.44873047 94.65673828 C-42.93898224 95.92408714 -44.43807886 97.18101296 -45.9375 98.4375 C-46.79472656 99.16195312 -47.65195312 99.88640625 -48.53515625 100.6328125 C-54.58161037 104.97333883 -63.69871159 103.87263429 -70.875 103.3125 C-74.65665225 102.58574672 -78.24884121 101.60316669 -81.875 100.3125 C-82.535 103.2825 -83.195 106.2525 -83.875 109.3125 C-83.070625 109.580625 -82.26625 109.84875 -81.4375 110.125 C-79.49491869 110.7725271 -77.55282666 111.4215604 -75.61328125 112.078125 C-74.83339844 112.34109375 -74.05351563 112.6040625 -73.25 112.875 C-72.51523437 113.12378906 -71.78046875 113.37257813 -71.0234375 113.62890625 C-68.98787247 114.27658603 -66.95270547 114.81892743 -64.875 115.3125 C-66.34080378 118.74294131 -68.236307 120.82625528 -70.9375 123.375 C-76.03076745 128.36283357 -80.44814465 133.73354507 -84.875 139.3125 C-86.47626228 141.32045637 -88.07895622 143.3272598 -89.68237305 145.33349609 C-90.75339279 146.67479714 -91.82262313 148.01752934 -92.88989258 149.36181641 C-94.809743 151.77373333 -96.69315824 154.13065824 -98.875 156.3125 C-101.67323527 149.98605504 -103.58308969 143.29366599 -102.875 136.3125 C-102.20726562 135.75175781 -101.53953125 135.19101562 -100.8515625 134.61328125 C-98.46840127 131.83920622 -98.64212534 131.10613904 -98.80859375 127.55859375 C-98.96342904 125.62130133 -99.13224222 123.68509251 -99.3125 121.75 C-100.69193798 100.85972558 -96.73643074 82.27262845 -83.875 65.3125 C-89.88988928 66.89976245 -94.34415957 69.0339036 -99.1484375 73.0078125 C-100.875 74.3125 -100.875 74.3125 -103.875 75.3125 C-104.37 76.3025 -104.37 76.3025 -104.875 77.3125 C-108.90336296 65.24352458 -108.47840284 50.78114693 -102.875 39.3125 C-93.52165766 21.77142941 -76.57971793 12.8840306 -58.35546875 7.05126953 C-39.31977027 1.38177902 -19.75628001 -0.07808806 0 0 Z " fill="#63CE00" transform="translate(629.875,546.6875)"/>
<path d="M0 0 C1.33064484 0.0007402 1.33064484 0.0007402 2.68817139 0.00149536 C18.01851708 0.027472 32.94852313 1.05751889 48.125 3.3125 C49.52855523 3.51235604 50.93218777 3.71167094 52.3359375 3.91015625 C53.25632812 4.04292969 54.17671875 4.17570313 55.125 4.3125 C54.69832031 5.00601563 54.27164063 5.69953125 53.83203125 6.4140625 C52.04208673 9.4532818 50.43130064 12.55409737 48.8125 15.6875 C42.63060277 27.12400987 33.60034926 35.78956461 21.125 40.3125 C18.4275672 40.85940218 15.87999515 41.11571463 13.125 41.3125 C16.85725752 30.59872546 21.66204119 23.65316276 31.125 17.3125 C21.6364573 18.91074744 13.38920506 24.08938169 7.125 31.3125 C4.69354724 34.84383129 2.47117112 38.50577064 0.21777344 42.15209961 C-3.36914904 47.83348821 -6.99770319 51.90584463 -12.875 55.3125 C-13.52984375 55.72628906 -14.1846875 56.14007812 -14.859375 56.56640625 C-19.81257508 59.40954309 -25.14984467 60.63174658 -30.875 60.3125 C-32.875 58.3125 -32.875 58.3125 -33.02734375 56.46484375 C-31.97306507 45.59618899 -25.74878535 37.59036278 -17.875 30.3125 C-14.98358754 28.36156209 -12.05498657 26.74086276 -8.875 25.3125 C-26.74795984 30.58648815 -44.00882994 42.07395662 -53.125 58.5625 C-53.44243164 59.16537842 -53.75986328 59.76825684 -54.08691406 60.3894043 C-55.96327116 63.92755085 -57.88478216 66.63982742 -60.875 69.3125 C-64.02369674 63.93086294 -63.51691743 57.90140197 -62.4453125 51.91015625 C-59.36527212 41.09198972 -51.22408569 34.00257371 -41.875 28.3125 C-41.215 28.3125 -40.555 28.3125 -39.875 28.3125 C-39.875 27.6525 -39.875 26.9925 -39.875 26.3125 C-50.56363892 28.09393982 -61.26381283 32.35027568 -67.875 41.3125 C-71.38643392 47.04909392 -73.53651329 52.74174704 -74.875 59.3125 C-75.535 59.3125 -76.195 59.3125 -76.875 59.3125 C-78.09375 57.7734375 -78.09375 57.7734375 -79.375 55.6875 C-80.00921875 54.67816406 -80.00921875 54.67816406 -80.65625 53.6484375 C-84.77778885 45.74882138 -85.54336459 36.13122972 -83.08203125 27.546875 C-82.12152917 25.38298525 -81.06132581 23.35966151 -79.875 21.3125 C-79.33875 20.178125 -78.8025 19.04375 -78.25 17.875 C-74.29017317 10.49532272 -63.3950454 8.67641653 -55.875 6.3125 C-52.68619371 5.43484114 -49.48566566 4.68344317 -46.25 4 C-45.56107666 3.85320801 -44.87215332 3.70641602 -44.16235352 3.55517578 C-29.50048142 0.68673054 -14.9001853 -0.05734997 0 0 Z " fill="#D8D92E" transform="translate(629.875,546.6875)"/>
<path d="M0 0 C12.93088259 11.20202833 23.74709507 29.85805492 25.17138672 47.07128906 C25.91573865 59.2723033 25.33991393 70.26454244 17.1262207 79.94970703 C12.8634322 84.72825461 9.1130088 87.89157798 3 90 C-0.6875 90.0625 -0.6875 90.0625 -4 89 C-8 84.07692308 -8 84.07692308 -8 82 C-7.3709375 81.97421875 -6.741875 81.9484375 -6.09375 81.921875 C1.73975774 81.40278714 7.70972182 79.71324001 13.25 73.9375 C21.40453225 63.33215205 20.89575548 50.92329119 19.75 38.23046875 C18.66585581 31.96276016 15.46417729 26.27157414 12 21 C11.34 20.67 10.68 20.34 10 20 C10.48146484 21.01126953 10.48146484 21.01126953 10.97265625 22.04296875 C13.13759106 28.27435905 13.25840642 36.42238175 11.0546875 42.6875 C9.1165225 46.00310302 7.60115789 47.67938246 4.1875 49.5 C3.465625 49.665 2.74375 49.83 2 50 C0.35490857 47.10331517 -0.24646145 45.01346975 -0.2734375 41.69140625 C-0.29100098 40.86817871 -0.30856445 40.04495117 -0.32666016 39.19677734 C-0.3426123 38.32746582 -0.35856445 37.4581543 -0.375 36.5625 C-0.83705368 23.91861725 -3.09912819 12.58555425 -12 3 C-14.60709835 1.24806498 -14.60709835 1.24806498 -17 0 C-16.7834375 0.68964844 -16.566875 1.37929688 -16.34375 2.08984375 C-12.93547217 13.59278142 -13.56532392 21.7190904 -18 33 C-18.99 33.99 -18.99 33.99 -20 35 C-20.99 35 -21.98 35 -23 35 C-23.34611328 34.03513672 -23.34611328 34.03513672 -23.69921875 33.05078125 C-24.39406138 31.12554535 -25.0951467 29.2025567 -25.80078125 27.28125 C-26.60577087 25.07867254 -27.39465631 22.87014783 -28.16796875 20.65625 C-32.38687035 8.96893682 -38.78056282 -0.50975191 -49.953125 -6.61328125 C-54.7832604 -9.06277003 -54.7832604 -9.06277003 -60 -10 C-59.05125 -9.278125 -58.1025 -8.55625 -57.125 -7.8125 C-53.28129053 -4.5852345 -52.18785244 -1.87852438 -51.6875 3.125 C-52 6 -52 6 -53.0625 7.9375 C-56.17599017 9.64489783 -58.58137876 8.68993365 -62 8 C-64.69867245 7.00369873 -67.27640675 5.79318226 -69.875 4.5625 C-86.16833416 -2.77051859 -103.14202237 -3.16137428 -120 3 C-128.84125469 6.54633004 -136.61943063 10.72606936 -143.3984375 17.53125 C-145 19 -145 19 -147 19 C-147 19.66 -147 20.32 -147 21 C-148.15838621 22.12431603 -149.31867233 23.24673843 -150.48828125 24.359375 C-153.44150514 27.56442419 -155.6724936 31.32877857 -158 35 C-157.34 35.66 -156.68 36.32 -156 37 C-157.32 37 -158.64 37 -160 37 C-159.43403308 31.79310435 -157.73336652 27.8394021 -155.375 23.25 C-155.015271 22.54407715 -154.65554199 21.8381543 -154.28491211 21.11083984 C-142.83631185 -0.91946249 -124.82337368 -15.6991404 -101.3125 -23.375 C-65.65362212 -33.26322871 -28.11710534 -23.30661914 0 0 Z " fill="#63CE03" transform="translate(490,637)"/>
<path d="M0 0 C0.74741455 0.01135986 1.4948291 0.02271973 2.26489258 0.03442383 C11.43338768 0.35343965 19.32026752 2.84130002 25.8125 9.5 C28.37699998 13.21487385 28.00299539 17.04075971 27.8671875 21.37109375 C27.84189661 22.9303297 27.81717457 24.48957496 27.79296875 26.04882812 C27.74334594 28.49582218 27.68736827 30.94232736 27.62060547 33.38891602 C27.56003689 35.75800608 27.52461085 38.12647451 27.4921875 40.49609375 C27.46526825 41.22332138 27.438349 41.95054901 27.41061401 42.69981384 C27.37505511 46.31720382 27.68988068 48.30762854 29.65283203 51.38720703 C32.1745548 53.8541965 34.68772988 55.30871357 37.8125 56.9375 C45.85480769 61.50788462 45.85480769 61.50788462 47.8125 66.5 C48.60177675 70.8194964 48.77812081 74.61104834 46.7421875 78.59375 C43.28337638 83.0542933 39.31700164 85.38706797 33.8125 86.5 C28.09400821 87.18932584 23.67411053 86.84910948 18.8125 83.5 C17.14595255 81.73753615 15.60679553 79.93144108 14.109375 78.0234375 C12.86916927 76.36534396 12.86916927 76.36534396 10.8125 75.5 C7.23960826 75.5406851 3.67798869 75.62609997 0.109375 75.80273438 C-5.54615579 75.93482722 -5.54615579 75.93482722 -8.6015625 73.86328125 C-12.76912046 67.65300399 -12.25451194 61.94642216 -11.8671875 54.7421875 C-11.92076266 51.48238687 -11.92076266 51.48238687 -13.7890625 49.22265625 C-17.5607132 46.51370192 -21.71649706 45.38208468 -26.09375 43.94140625 C-30.54912212 41.86560788 -32.45705161 39.06524655 -34.5 34.6875 C-35.41666 30.43753091 -35.15054191 27.76489989 -34.1875 23.5 C-32.6171875 21.3046875 -32.6171875 21.3046875 -30.1875 19.5 C-27.48197755 19.0509984 -25.14519409 18.80630366 -22.4375 18.75 C-21.39142578 18.70552734 -21.39142578 18.70552734 -20.32421875 18.66015625 C-18.61259187 18.58981542 -16.90004185 18.54260054 -15.1875 18.5 C-14.21286888 14.34499365 -14.29324734 10.89317679 -14.73828125 6.68359375 C-14.1875 4.5 -14.1875 4.5 -11.6796875 2.25390625 C-7.65966429 0.2349013 -4.40050443 -0.11321374 0 0 Z " fill="#4D3640" transform="translate(605.1875,905.5)"/>
<path d="M0 0 C4.85001096 3.19809987 8.71799707 5.40953852 14.625 4.5 C17.45048405 3.35565815 20.13813706 2.02489216 22.8671875 0.66796875 C28.20238897 -1.59155708 32.84672752 -1.42202902 38.296875 0.38671875 C44.1627351 2.99858841 47.70001002 5.75088175 50.625 11.5 C50.70999226 15.57962853 49.68248773 17.40869595 47.5 20.875 C44.9438584 25.05188355 45.54643708 27.80054727 46.625 32.5 C46.99625 33.221875 47.3675 33.94375 47.75 34.6875 C49.00525138 37.28766357 48.54196183 38.81965004 47.625 41.5 C43.76635979 44.07242681 40.47452614 43.78595245 36 43.875 C29.31546518 44.13819154 23.20272704 44.37904402 17.625 48.5 C16.42571376 49.92020738 15.22658279 51.34467819 14.1328125 52.84765625 C9.24037287 58.2090603 1.17150517 62.80260098 -6.0234375 63.90625 C-11.03839034 64.07868391 -14.47031831 64.04350933 -18.4375 60.75 C-21.80138596 57.49303462 -23.20729318 54.56214317 -23.9375 49.9375 C-23.89058834 45.74672547 -22.15602844 43.33608308 -19.8125 39.9375 C-16.88570153 35.66627703 -16.88570153 35.66627703 -16.125 30.5625 C-17.91509932 26.17675667 -20.39081576 24.64413689 -24.4140625 22.32421875 C-30.05554309 19.01113106 -30.05554309 19.01113106 -31.9375 16 C-32.58979244 12.27261465 -32.08539139 9.57762761 -29.9921875 6.40234375 C-21.24201903 -3.46611979 -11.65584412 -7.94420661 0 0 Z " fill="#735E67" transform="translate(504.375,928.5)"/>
<path d="M0 0 C5.66402565 3.96039294 9.12748204 9.19984612 12 15.3984375 C14.37797861 16.5874268 15.71488599 16.47215171 18.359375 16.390625 C19.66261719 16.36548828 19.66261719 16.36548828 20.9921875 16.33984375 C22.8153196 16.29594397 24.63827761 16.2439989 26.4609375 16.18359375 C32.65061792 16.08317121 36.88888458 16.82372129 41.8125 20.8984375 C44.25107392 23.9787414 44.33418425 27.40076136 44.28515625 31.2109375 C43.43670084 37.71963654 39.06428753 44.00781629 33.9921875 47.96484375 C29.43974766 51.16698364 25.44400233 53.24013913 20 54.3984375 C20.9075 54.9346875 21.815 55.4709375 22.75 56.0234375 C26.15055888 58.32547855 28.16832507 60.66182065 30 64.3984375 C30.125 68.0234375 30.125 68.0234375 29 71.3984375 C26.12352033 73.94804448 24.11263217 75.21731133 20.3125 75.8359375 C17.48346207 75.30071411 16.68006787 74.71853122 15 72.3984375 C13.8125 69.7109375 13.8125 69.7109375 13 67.3984375 C9.48155798 66.98450314 8.29108348 67.17125039 5.4375 69.3984375 C0.36661351 72.34877146 -4.2651591 72.03037589 -10 71.3984375 C-15.45248198 69.68191539 -18.7878009 66.00224077 -22 61.3984375 C-23.21260877 57.76061118 -23.39544552 55.22107751 -23 51.3984375 C-20.98576599 48.34459885 -19.53282039 46.71965354 -15.875 45.953125 C-11.85809187 45.74956547 -9.30784193 46.25591809 -5.625 47.9609375 C-2.38855507 50.96620779 -1.43192638 53.2617613 0 57.3984375 C3.14624993 57.66062499 4.61837017 57.64598117 7.3125 55.8984375 C7.869375 55.4034375 8.42625 54.9084375 9 54.3984375 C7.9275 53.9859375 6.855 53.5734375 5.75 53.1484375 C2.39156809 51.66558147 0.19024327 50.44913348 -2 47.3984375 C-3.20066458 44.11213574 -4.1456736 40.78985443 -5 37.3984375 C-6.11117187 37.16769531 -7.22234375 36.93695312 -8.3671875 36.69921875 C-30.42615933 31.94110944 -30.42615933 31.94110944 -37 22.3984375 C-38.55944339 19.27955072 -38.28316275 16.853023 -38 13.3984375 C-34.94335576 6.42928864 -30.33120781 2.39716219 -23.875 -1.4765625 C-16.36534418 -4.30114025 -7.07244959 -3.66623306 0 0 Z " fill="#4C353F" transform="translate(685,936.6015625)"/>
<path d="M0 0 C29.80592458 10.50356383 57.14492445 45.38332712 70.85400391 72.58544922 C86 104.49723051 86 104.49723051 86 119 C86.66 119 87.32 119 88 119 C88.10127197 118.15219971 88.20254395 117.30439941 88.30688477 116.4309082 C89.07832332 112.61230094 90.39630736 109.61181143 92.08984375 106.10546875 C92.54672325 105.15623283 92.54672325 105.15623283 93.01283264 104.18782043 C93.65383591 102.86079326 94.29862852 101.53559043 94.94702148 100.2121582 C95.940738 98.18088113 96.91933905 96.14280738 97.89648438 94.10351562 C98.5225545 92.81207156 99.14947758 91.52104058 99.77734375 90.23046875 C100.34702881 89.05895264 100.91671387 87.88743652 101.50366211 86.68041992 C103 84 103 84 105 83 C104.82984375 83.53625 104.6596875 84.0725 104.484375 84.625 C97.56025037 107.0179137 94.2951888 128.55919293 95 152 C95.0196529 153.36197742 95.03919522 154.72395644 95.05859375 156.0859375 C95.92852143 180.81297269 107.3412528 201.05134336 123.3125 219.25 C147.96897199 247.406906 147.96897199 247.406906 150 265 C149.5875 264.443125 149.175 263.88625 148.75 263.3125 C148.1725 262.549375 147.595 261.78625 147 261 C146.484375 260.175 145.96875 259.35 145.4375 258.5 C141.40266064 254.36170322 136.06193921 252.83774657 130.55859375 251.33203125 C124.57201781 249.66065218 121.39996148 247.23327404 118 242 C117.505 240.9275 117.01 239.855 116.5 238.75 C115.21980833 235.76147182 115.21980833 235.76147182 112.14624023 234.64819336 C108.58961427 232.78501482 107.3301299 231.21372952 105.16015625 227.87890625 C104.48919922 226.85990234 103.81824219 225.84089844 103.12695312 224.79101562 C102.44568359 223.72560547 101.76441406 222.66019531 101.0625 221.5625 C100.38509766 220.53189453 99.70769531 219.50128906 99.00976562 218.43945312 C86.0321121 198.54370243 86.0321121 198.54370243 82.6875 188.5 C82.44966797 187.84386719 82.21183594 187.18773437 81.96679688 186.51171875 C78.15581554 175.46937394 77.82450805 164.57158307 78.07901001 153.02261353 C78.37580509 137.95302572 77.66765817 123.69736055 74 109 C73.80744629 108.22188965 73.61489258 107.4437793 73.41650391 106.64208984 C65.2662496 74.75600721 48.30669957 46.91878038 26 23 C25.26394531 22.19820312 24.52789062 21.39640625 23.76953125 20.5703125 C18.07006712 14.59398998 11.84693306 9.6815801 5.18139648 4.84619141 C3.44043795 3.58296678 1.7182147 2.29399047 0 1 C0 0.67 0 0.34 0 0 Z " fill="#026E02" transform="translate(411,645)"/>
<path d="M0 0 C11.80028307 8.42395029 16.32418133 18.95643457 18.9375 32.875 C23.65825231 55.70004851 30.0099297 77.26136838 47 94 C47.66 94.66 48.32 95.32 49 96 C41.37710735 98.94520852 34.17179678 98.4852714 26.5 95.75390625 C11.82680106 89.0447791 0.71719085 76.62106783 -5.33984375 61.69921875 C-7.72725802 54.03246575 -8.87272879 46.15127804 -9.78662109 38.19091797 C-10.76108382 30.48352196 -13.22881527 22.46743816 -19 17 C-30.84709827 9.00087656 -45.27981359 9.67926837 -59 10 C-54.41562518 5.21313512 -49.83051832 2.07979622 -44 -1 C-43.22269531 -1.41894531 -42.44539063 -1.83789062 -41.64453125 -2.26953125 C-29.33791466 -7.80653045 -11.36168829 -7.3618223 0 0 Z " fill="#016E01" transform="translate(403,661)"/>
<path d="M0 0 C0.33 0 0.66 0 1 0 C2.0348919 37.00136571 -6.82929517 74.7925708 -31.5625 103.5 C-39.48923197 111.88008059 -48.84845294 118.46818784 -60.65234375 119.23828125 C-79.14874083 119.72166301 -93.8363289 113.69107037 -107.3828125 100.890625 C-112.54912513 95.18454837 -121.2396409 85.05093269 -120.921875 77.02734375 C-119.55444183 74.02014961 -117.50303981 71.96552027 -115.25 69.5625 C-114.38890625 68.63566406 -113.5278125 67.70882812 -112.640625 66.75390625 C-110.12678506 64.13222407 -107.57968922 61.55649058 -105 59 C-105.04125 60.155 -105.0825 61.31 -105.125 62.5 C-105.09826175 70.08029306 -102.93337434 75.6082667 -99 82 C-98.67 82.763125 -98.34 83.52625 -98 84.3125 C-96.68235979 86.53601786 -95.31910513 86.87903149 -93 88 C-91.4328411 88.97169265 -89.87064933 89.95142482 -88.3125 90.9375 C-77.56420212 97.43720816 -65.72660237 99.52327537 -53.28125 97.57421875 C-38.49562096 93.76083658 -27.72297025 81.31382365 -20.12890625 68.71875 C-8.69516113 49.05044531 -2.66371315 26.66028838 -1.2109375 4.00390625 C-1 2 -1 2 0 0 Z " fill="#036F03" transform="translate(695,592)"/>
<path d="M0 0 C2.85997858 2.85997858 3.03915621 3.60340555 3.25 7.75 C3.21266694 11.83423664 2.35012871 15.19961388 1.0625 19.0625 C1.68898438 19.38863281 2.31546875 19.71476563 2.9609375 20.05078125 C3.77820313 20.48777344 4.59546875 20.92476562 5.4375 21.375 C6.24960937 21.80425781 7.06171875 22.23351562 7.8984375 22.67578125 C10.0625 24.0625 10.0625 24.0625 12.0625 27.0625 C12.48765447 31.4557629 12.54657981 33.97908327 10.75 38 C7.12054593 40.78539498 4.16069598 40.61408027 -0.31640625 40.828125 C-3.54932329 41.11720849 -5.37481444 42.10279928 -7.9375 44.0625 C-12.11429677 47.03022402 -14.81017352 47.59291308 -19.9375 47.0625 C-25.12463802 45.33345399 -29.31378552 42.6382471 -33.796875 39.53515625 C-35.57230053 38.31374124 -37.40518799 37.17634876 -39.25 36.0625 C-43.335052 33.0224613 -45.57365882 30.04341307 -46.5 25 C-45.71874987 20.9201382 -44.12298103 19.70533081 -40.9375 17.0625 C-37.41046081 15.55720141 -33.70808832 14.60950544 -30 13.65429688 C-25.6951921 12.4239753 -25.6951921 12.4239753 -22.8503418 9.18383789 C-22.07116573 7.07975078 -22.07116573 7.07975078 -21.58618164 4.98730469 C-20.40305566 1.47666667 -17.94881655 0.09052952 -14.9375 -1.9375 C-10.02521948 -4.22989757 -4.30779163 -2.84130937 0 0 Z " fill="#4C353F" transform="translate(583.9375,959.9375)"/>
<path d="M0 0 C0.74741455 0.01135986 1.4948291 0.02271973 2.26489258 0.03442383 C11.43338768 0.35343965 19.32026752 2.84130002 25.8125 9.5 C28.36258376 13.20817427 28.0359217 17.04648149 27.9375 21.37109375 C27.92992676 22.13043716 27.92235352 22.88978058 27.91455078 23.6721344 C27.88194232 26.91133203 27.82567566 30.15001917 27.77148438 33.38891602 C27.73523945 35.75795136 27.71109916 38.12690406 27.6875 40.49609375 C27.67090332 41.22332138 27.65430664 41.95054901 27.63720703 42.69981384 C27.59814507 46.76443125 27.99882435 49.84453315 29.8125 53.5 C24.19941559 51.05952852 24.19941559 51.05952852 22.6184082 48.77319336 C21.57910889 45.84168293 21.67113411 43.48510949 21.79296875 40.37890625 C21.82197266 39.19619141 21.85097656 38.01347656 21.88085938 36.79492188 C21.96017472 34.31014104 22.05128952 31.82570834 22.15429688 29.34179688 C22.4533405 22.39425018 22.4533405 22.39425018 19.59375 16.296875 C12.39178365 11.64391921 5.43352333 9.33830182 -3.1875 10.5 C-6.37061034 11.04208041 -6.37061034 11.04208041 -8.1875 13.5 C-8.71824004 16.38670804 -8.93911556 19.16896639 -9.046875 22.1015625 C-9.1875 24.5 -9.1875 24.5 -10.1875 25.5 C-12.97140592 25.4909319 -15.74245041 25.36692835 -18.5234375 25.2421875 C-21.18315366 25.28494779 -21.18315366 25.28494779 -23.0078125 26.734375 C-25.23991322 30.07513501 -24.87806021 33.66129764 -24.1875 37.5 C-20.97914201 42.31253698 -16.70853006 43.65536094 -11.39453125 45.3125 C-9.1875 46.5 -9.1875 46.5 -7.8828125 48.8828125 C-7.1063648 51.80539655 -7.23027425 54.42995725 -7.29296875 57.43359375 C-7.10517675 61.11292585 -6.12127191 63.34150589 -4.1875 66.5 C-1.2985214 67.53177807 0.98824062 67.56396369 4.02734375 67.328125 C10.15199798 66.96125719 10.15199798 66.96125719 12.359375 68.76171875 C13.56566368 70.2993645 14.69175344 71.89893349 15.8125 73.5 C19.98158646 76.13080718 24.02834253 76.03987888 28.8125 75.5 C32.91016202 73.9823474 35.8240827 72.47683459 37.8125 68.5 C38.36083255 63.47361831 37.7876695 60.59085807 34.8125 56.5 C39.86306152 57.90945903 44.10842758 59.6858804 46.921875 64.33203125 C48.57016794 68.34432329 48.54314684 72.25963886 47.8125 76.5 C45.6233919 80.82992705 42.42058246 83.52398134 38 85.4375 C32.40188329 87.16082082 27.18409263 87.29053088 21.625 85.4375 C18.51534774 83.29529511 16.42753202 80.97721822 14.109375 78.0234375 C12.86916927 76.36534396 12.86916927 76.36534396 10.8125 75.5 C7.23960826 75.5406851 3.67798869 75.62609997 0.109375 75.80273438 C-5.54615579 75.93482722 -5.54615579 75.93482722 -8.6015625 73.86328125 C-12.76912046 67.65300399 -12.25451194 61.94642216 -11.8671875 54.7421875 C-11.92076266 51.48238687 -11.92076266 51.48238687 -13.7890625 49.22265625 C-17.5607132 46.51370192 -21.71649706 45.38208468 -26.09375 43.94140625 C-30.54912212 41.86560788 -32.45705161 39.06524655 -34.5 34.6875 C-35.41666 30.43753091 -35.15054191 27.76489989 -34.1875 23.5 C-32.6171875 21.3046875 -32.6171875 21.3046875 -30.1875 19.5 C-27.48197755 19.0509984 -25.14519409 18.80630366 -22.4375 18.75 C-21.39142578 18.70552734 -21.39142578 18.70552734 -20.32421875 18.66015625 C-18.61259187 18.58981542 -16.90004185 18.54260054 -15.1875 18.5 C-14.21286888 14.34499365 -14.29324734 10.89317679 -14.73828125 6.68359375 C-14.1875 4.5 -14.1875 4.5 -11.6796875 2.25390625 C-7.65966429 0.2349013 -4.40050443 -0.11321374 0 0 Z " fill="#715D65" transform="translate(605.1875,905.5)"/>
<path d="M0 0 C1.32 0.33 2.64 0.66 4 1 C4.29483519 32.98281408 4.29483519 32.98281408 0 44 C0.804375 44.268125 1.60875 44.53625 2.4375 44.8125 C4.38008131 45.4600271 6.32217334 46.1090604 8.26171875 46.765625 C9.43154297 47.16007813 9.43154297 47.16007813 10.625 47.5625 C11.35976563 47.81128906 12.09453125 48.06007813 12.8515625 48.31640625 C14.88712753 48.96408603 16.92229453 49.50642743 19 50 C17.53419622 53.43044131 15.638693 55.51375528 12.9375 58.0625 C7.84423255 63.05033357 3.42685535 68.42104507 -1 74 C-2.60126228 76.00795637 -4.20395622 78.0147598 -5.80737305 80.02099609 C-6.87839279 81.36229714 -7.94762313 82.70502934 -9.01489258 84.04931641 C-10.934743 86.46123333 -12.81815824 88.81815824 -15 91 C-17.79823527 84.67355504 -19.70808969 77.98116599 -19 71 C-17.99839844 70.15888672 -17.99839844 70.15888672 -16.9765625 69.30078125 C-14.59340127 66.52670622 -14.76712534 65.79363904 -14.93359375 62.24609375 C-15.08842904 60.30880133 -15.25724222 58.37259251 -15.4375 56.4375 C-16.81693798 35.54722558 -12.86143074 16.96012845 0 0 Z " fill="#02AA01" transform="translate(546,612)"/>
<path d="M0 0 C0.99101043 3.10563128 0.95875336 5.05235896 0.125 8.1875 C-4.53033645 27.50085527 -2.23183779 47.38762293 8.125 64.5 C15.93545559 76.12330166 25.85905576 86.1608976 35.42529297 96.32519531 C47.33767811 108.99480184 57.55694308 122.41962444 67 137 C67.66 137.99 68.32 138.98 69 140 C69 142.0625 69 142.0625 68 144 C66.02029433 144.72471368 64.01971809 145.39569605 62 146 C59.4767373 143.33562335 56.95685345 140.66807299 54.4375 138 C53.73302734 137.25621094 53.02855469 136.51242187 52.30273438 135.74609375 C47.753976 130.92482912 43.32715475 126.02077125 39 121 C38.49686279 120.41911621 37.99372559 119.83823242 37.4753418 119.23974609 C31.58324827 112.42722738 25.74763686 105.5732052 20.08203125 98.5703125 C18.71846899 96.88696547 17.34127484 95.21454867 15.94921875 93.5546875 C-0.83753476 73.28020073 -7.92466987 52.08464863 -5.69140625 25.96875 C-4.77310865 16.9803009 -2.76739292 8.59772557 0 0 Z " fill="#63CE05" transform="translate(519,758)"/>
<path d="M0 0 C-1.30462992 3.51007574 -2.86318898 6.53427289 -4.875 9.6875 C-14.91045726 26.38884493 -16.08409852 44.87550408 -13.828125 63.86328125 C-14 67 -14 67 -16.03515625 68.9765625 C-16.68355469 69.64429688 -17.33195313 70.31203125 -18 71 C-17.9185093 74.34189448 -17.9185093 74.34189448 -17.1875 78.0625 C-15.92467869 88.07713029 -20.28417331 95.49156878 -24.97509766 104.06396484 C-26.16614749 106.31385173 -27.13221459 108.60759713 -28 111 C-28.33 111 -28.66 111 -29 111 C-29.52815243 101.9040414 -28.36380708 93.17471104 -27.06713867 84.18725586 C-25.82636542 75.44728743 -25.9992893 68.10391148 -27.875 59.5 C-28.2397321 57.71800916 -28.6016903 55.93544843 -28.9609375 54.15234375 C-29.69978592 50.48539295 -29.69978592 50.48539295 -30.45019531 46.82080078 C-32.63217069 35.92419625 -31.80701706 27.78487116 -26.33203125 18.02734375 C-20.71416878 9.60634166 -10.88213419 -0.60456301 0 0 Z " fill="#036F03" transform="translate(546,612)"/>
<path d="M0 0 C2.36293002 1.15632746 4.14983755 2.14983755 6 4 C6.04092937 6.33297433 6.04241723 8.66705225 6 11 C7.19625 11.061875 8.3925 11.12375 9.625 11.1875 C14.48656871 11.79950599 16.63343451 13.47312187 20 17 C22.17185131 20.25777697 22.10933924 22.6301026 21.5 26.375 C20.07982897 31.89891199 16.97943273 36.19170885 12.08203125 39.1640625 C8.42458773 40.63252951 4.86006376 40.69300965 1 40 C-1.75 37.6875 -1.75 37.6875 -4 35 C-8.58160976 31.73985626 -12.68426514 31.32341606 -18.16015625 30.72265625 C-21.53739517 29.86324882 -22.81243211 28.66246716 -25 26 C-26.55774936 22.88450128 -26.56480622 19.3955612 -26 16 C-24.83984375 14.2890625 -24.83984375 14.2890625 -23 13 C-20.30078125 12.48828125 -20.30078125 12.48828125 -17.3125 12.3125 C-16.31863281 12.24675781 -15.32476562 12.18101562 -14.30078125 12.11328125 C-13.54152344 12.07589844 -12.78226562 12.03851562 -12 12 C-12.04640625 11.38511719 -12.0928125 10.77023437 -12.140625 10.13671875 C-12.43275733 3.59504132 -12.43275733 3.59504132 -10.5 0.9375 C-6.97091066 -0.3859085 -3.68839626 -0.56350498 0 0 Z " fill="#4C353F" transform="translate(516,887)"/>
<path d="M0 0 C2.8688448 2.08933686 3.42871017 4.05432427 4.1875 7.4375 C5.02355729 10.15248603 5.50001987 11.6100155 7.7578125 13.37109375 C9.80825092 14.37292393 11.85937769 15.21092372 14 16 C19.78571429 18.67857143 19.78571429 18.67857143 22 22 C22.23581916 26.26832684 21.66897061 29.9450848 19.375 33.5625 C15.93111807 35.64695485 14.00139527 35.51630907 10 35 C4.06636085 33.15690448 -0.95169918 30.57074936 -6 27 C-10.11034983 25.62988339 -14.24959179 25.71964869 -18.55078125 25.65820312 C-21.76784613 25.52177927 -23.55820855 25.41867962 -25.94140625 23.16015625 C-27.54979859 19.87808628 -27.42269182 17.62307273 -27 14 C-24.62341836 7.16413346 -21.09810538 3.79690112 -14.875 0.1875 C-10.12227171 -1.72824731 -4.8914445 -1.23065005 0 0 Z " fill="#4C353F" transform="translate(452,945)"/>
<path d="M0 0 C4.10727015 1.90151396 6.09054658 3.67715031 7.875 7.75 C8.24625 8.8225 8.6175 9.895 9 11 C12.71640963 11.34047599 12.71640963 11.34047599 15.8359375 9.515625 C19.7854051 6.74957188 24.37605416 7.40271237 29 8 C33.83782474 10.28697169 36.64289817 13.19151227 39 18 C39.125 21.625 39.125 21.625 38 25 C35.12352033 27.54960698 33.11263217 28.81887383 29.3125 29.4375 C26.48346207 28.90227661 25.68006787 28.32009372 24 26 C22.8125 23.3125 22.8125 23.3125 22 21 C18.48155798 20.58606564 17.29108348 20.77281289 14.4375 23 C9.36661351 25.95033396 4.7348409 25.63193839 -1 25 C-6.45248198 23.28347789 -9.7878009 19.60380327 -13 15 C-14.21260877 11.36217368 -14.39544552 8.82264001 -14 5 C-10.33450044 -0.5573703 -6.19574476 -1.15828738 0 0 Z " fill="#715D66" transform="translate(676,983)"/>
<path d="M0 0 C1.0725 -0.01417969 2.145 -0.02835938 3.25 -0.04296875 C6 0.1875 6 0.1875 8 2.1875 C7.96712417 4.91619407 7.43602229 7.4841618 7 10.1875 C7.97582031 10.12949219 8.95164062 10.07148437 9.95703125 10.01171875 C11.22933594 9.96660156 12.50164062 9.92148437 13.8125 9.875 C15.70935547 9.78798828 15.70935547 9.78798828 17.64453125 9.69921875 C21 10.1875 21 10.1875 22.94921875 12.4609375 C24.40647499 16.2422195 24.21598773 19.39866019 23 23.1875 C20.571842 27.4367765 17.65238279 29.73732144 13 31.1875 C3.13164507 32.28142499 -5.35128364 31.20432076 -14 26.1875 C-15.83203125 24.64453125 -15.83203125 24.64453125 -17 23.1875 C-16.9375 21.1875 -16.9375 21.1875 -16 19.1875 C-12.67857143 16.1875 -12.67857143 16.1875 -10 16.1875 C-10.56222339 11.51312399 -10.56222339 11.51312399 -11.8125 7 C-11.9053125 6.1028125 -11.9053125 6.1028125 -12 5.1875 C-8.24529402 0.65595829 -5.74412002 0.03451995 0 0 Z " fill="#725E67" transform="translate(442,978.8125)"/>
<path d="M0 0 C2.62079045 0.52415809 4.7298252 1.32913686 7.1875 2.4375 C11.3189814 4.26972218 15.57796829 5.14768096 20 6 C18.53419622 9.43044131 16.638693 11.51375528 13.9375 14.0625 C8.84423255 19.05033357 4.42685535 24.42104507 0 30 C-1.60126228 32.00795637 -3.20395622 34.0147598 -4.80737305 36.02099609 C-5.87839279 37.36229714 -6.94762313 38.70502934 -8.01489258 40.04931641 C-9.934743 42.46123333 -11.81815824 44.81815824 -14 47 C-16.83362431 40.59354504 -18.79787319 34.07250553 -18 27 C-16.60633101 24.87164928 -15.08157096 23.57805487 -13.11328125 21.97265625 C-10.43540179 19.4729721 -8.62590802 16.61155186 -6.75 13.5 C-5.78320312 11.90671875 -5.78320312 11.90671875 -4.796875 10.28125 C-2.94958997 6.9079469 -1.45477264 3.55611091 0 0 Z " fill="#F8FCF7" transform="translate(545,656)"/>
<path d="M0 0 C3.4375 0.75 3.4375 0.75 5.4375 2.75 C5.5625 5.375 5.5625 5.375 5.4375 7.75 C6.79875 7.87375 6.79875 7.87375 8.1875 8 C11.96321704 8.87131932 13.25657617 9.56249593 15.4375 12.75 C16.07062105 17.0235671 15.71614635 19.20302754 13.75 23.0625 C11.31061331 25.8974629 10.05934623 26.95496058 6.4375 27.75 C3.09766468 27.58300823 1.73779672 27.00858884 -0.8125 24.8125 C-4.04876467 22.3853015 -6.54323842 21.93722574 -10.4765625 21.33984375 C-12.99103686 20.62882197 -14.00260844 19.83311537 -15.5625 17.75 C-15.875 14.1875 -15.875 14.1875 -15.5625 10.75 C-13.5625 8.75 -13.5625 8.75 -9.9375 8.625 C-8.266875 8.686875 -8.266875 8.686875 -6.5625 8.75 C-6.624375 7.63625 -6.68625 6.5225 -6.75 5.375 C-6.688125 4.17875 -6.62625 2.9825 -6.5625 1.75 C-3.5625 -0.25 -3.5625 -0.25 0 0 Z " fill="#735E67" transform="translate(513.5625,893.25)"/>
<path d="M0 0 C2.10375 0.495 2.10375 0.495 4.25 1 C13.06874138 2.64554701 22.0687839 2.15745533 31 2 C30.25105469 2.73476563 29.50210938 3.46953125 28.73046875 4.2265625 C26.06880408 6.85172379 26.06880408 6.85172379 24.11328125 9.2734375 C19.44796775 14.71798991 19.44796775 14.71798991 15.61328125 15.46484375 C9.07444423 15.06450679 3.59592328 12.22658555 -2 9 C-1.34 6.03 -0.68 3.06 0 0 Z " fill="#026E02" transform="translate(548,647)"/>
<path d="M0 0 C-1.2363168 0.89422914 -2.48971562 1.76487891 -3.75 2.625 C-4.44609375 3.11226562 -5.1421875 3.59953125 -5.859375 4.1015625 C-8 5 -8 5 -10.265625 4.1484375 C-10.83796875 3.76945313 -11.4103125 3.39046875 -12 3 C-10.5682384 2.30062798 -9.12932968 1.61587282 -7.6875 0.9375 C-6.48673828 0.36322266 -6.48673828 0.36322266 -5.26171875 -0.22265625 C-3 -1 -3 -1 0 0 Z " fill="#76CE06" transform="translate(622,572)"/>
<path d="M0 0 C1 2 1 2 0.22265625 4.3828125 C-0.16019531 5.28773438 -0.54304687 6.19265625 -0.9375 7.125 C-1.31777344 8.03507813 -1.69804688 8.94515625 -2.08984375 9.8828125 C-2.39019531 10.58148437 -2.69054687 11.28015625 -3 12 C-3.99 11.67 -4.98 11.34 -6 11 C-4.02 7.37 -2.04 3.74 0 0 Z " fill="#197F19" transform="translate(515,728)"/>
<path d="M0 0 C-2.61514317 2.12038635 -5.19637616 4.13091744 -8 6 C-7.625 3.5625 -7.625 3.5625 -7 1 C-4.53721199 -0.231394 -2.7204945 -0.07159196 0 0 Z " fill="#74CE05" transform="translate(663,563)"/>
<path d="M0 0 C-2 2 -2 2 -5 2.25 C-8 2 -8 2 -10 0 C-6.33694766 -0.74926071 -3.57644848 -1.2380014 0 0 Z " fill="#DDDD41" transform="translate(597,550)"/>
</svg>
